<svg width="33" height="24" viewBox="0 0 33 24" fill="fill" xmlns="http://www.w3.org/2000/svg">
<path d="M20.6384 15.195C16.7869 15.195 9.09836 17.1135 9.09836 20.965V23.85H32.1784V20.965C32.1784 17.1135 24.4898 15.195 20.6384 15.195ZM7.65586 9.42502V5.09752H4.77086V9.42502H0.443359V12.31H4.77086V16.6375H7.65586V12.31H11.9834V9.42502M20.6384 12.31C22.1687 12.31 23.6363 11.7021 24.7184 10.62C25.8004 9.53794 26.4084 8.07032 26.4084 6.54002C26.4084 5.00972 25.8004 3.5421 24.7184 2.46001C23.6363 1.37793 22.1687 0.77002 20.6384 0.77002C19.1081 0.77002 17.6404 1.37793 16.5584 2.46001C15.4763 3.5421 14.8684 5.00972 14.8684 6.54002C14.8684 8.07032 15.4763 9.53794 16.5584 10.62C17.6404 11.7021 19.1081 12.31 20.6384 12.31Z" fill="fill"/>
</svg>
