<svg width="1113" height="245" viewBox="0 0 1113 245" fill="none" xmlns="http://www.w3.org/2000/svg">
<rect width="984" height="245" transform="translate(66)" fill="#F3F8F3"/>
<path d="M614.298 84.0999C614.279 83.0042 614.265 81.9697 614.265 81.0809V72.2874L605.599 70.7827C594.196 68.281 583.018 65.0081 572.066 60.9735C571.925 60.5926 571.746 60.2352 571.53 59.8919C571.314 59.5534 571.06 59.2383 570.778 58.9467C570.495 58.6599 570.185 58.4013 569.851 58.1803C569.513 57.9545 569.155 57.7664 568.779 57.6207C568.408 57.4702 568.017 57.362 567.622 57.2915C567.223 57.2257 566.823 57.1974 566.418 57.2116C566.014 57.2304 565.614 57.2868 565.224 57.3855C564.829 57.4843 564.453 57.6207 564.091 57.7994C563.729 57.978 563.385 58.1944 563.07 58.4436C562.751 58.6928 562.464 58.9703 562.2 59.2806C561.942 59.591 561.716 59.9248 561.528 60.2775C561.335 60.6349 561.185 61.0111 561.072 61.3967C560.964 61.787 560.893 62.182 560.86 62.5864C560.832 62.9861 560.846 63.3905 560.903 63.7902C560.954 64.1899 561.053 64.5802 561.189 64.9611C561.326 65.342 561.5 65.7041 561.711 66.0474C561.923 66.3906 562.172 66.7104 562.45 67.002C562.727 67.2935 563.033 67.5568 563.367 67.7825C563.7 68.013 564.053 68.2058 564.429 68.3562C564.801 68.5114 565.186 68.6243 565.586 68.6995C565.981 68.7748 566.386 68.803 566.79 68.7936C567.19 68.7842 567.589 68.7324 567.984 68.6384C568.375 68.5443 568.756 68.4127 569.122 68.2387C569.484 68.0647 569.832 67.8578 570.152 67.6133C581.344 71.7279 592.766 75.0525 604.423 77.5823L607.362 78.0902V81.0809C607.362 82.0449 607.381 83.0936 607.405 84.2221C607.701 101 608.401 140.279 559.12 177.889L554.874 181.129L559.059 186.598L563.305 183.363C585.59 166.368 600.765 146.915 608.397 125.547C610.692 118.888 612.337 112.074 613.33 105.105C614.322 98.1365 614.646 91.1347 614.298 84.0999Z" fill="#E4E7EC"/>
<mask id="mask0_560_22459" style="mask-type:luminance" maskUnits="userSpaceOnUse" x="485" y="32" width="147" height="32">
<path d="M485.059 32H631.924V63.2804H485.059V32Z" fill="white"/>
</mask>
<g mask="url(#mask0_560_22459)">
<path d="M491.575 63.0217C492.121 63.0217 492.657 62.9465 493.179 62.796C493.705 62.6408 494.194 62.4198 494.655 62.1283C495.116 61.8367 495.53 61.4887 495.892 61.0796C496.254 60.6705 496.55 60.2191 496.785 59.7253C516.413 54.9477 535.576 48.7123 554.263 41.0286L556.953 39.6978L559.642 41.0286C567.147 44.7388 604 57.5716 621.738 60.6658L629.633 62.0342L630.813 55.2393L622.918 53.8709C602.303 49.2578 582.228 42.9143 562.699 34.845L556.953 32L551.202 34.845C533.069 42.2935 514.481 48.3361 495.431 52.9633C495.083 52.6529 494.702 52.3849 494.288 52.1639C493.879 51.9429 493.447 51.7736 492.991 51.6607C492.539 51.5432 492.074 51.482 491.608 51.482C491.138 51.4773 490.677 51.5291 490.221 51.6419C489.769 51.7501 489.332 51.91 488.914 52.1263C488.5 52.3426 488.114 52.6059 487.766 52.9116C487.414 53.2219 487.103 53.5652 486.835 53.9508C486.567 54.3364 486.351 54.7455 486.182 55.1828C486.012 55.6201 485.899 56.0716 485.843 56.5371C485.782 56.9979 485.782 57.4635 485.838 57.929C485.89 58.3946 486.003 58.846 486.167 59.2833C486.332 59.7253 486.548 60.1344 486.812 60.52C487.08 60.9056 487.385 61.2536 487.733 61.564C488.086 61.879 488.467 62.1424 488.881 62.3587C489.295 62.5797 489.732 62.7443 490.183 62.8571C490.639 62.9653 491.1 63.0217 491.571 63.0217H491.575Z" fill="#E4E7EC"/>
</g>
<path d="M533.431 169.759C533.812 169.759 534.188 169.726 534.56 169.651C534.931 169.575 535.293 169.467 535.641 169.321C535.994 169.176 536.323 168.997 536.638 168.785C536.953 168.579 537.25 168.339 537.518 168.071C537.786 167.803 538.021 167.511 538.232 167.196C538.444 166.881 538.623 166.547 538.768 166.194C538.914 165.846 539.022 165.484 539.098 165.113C539.168 164.741 539.206 164.365 539.206 163.984C539.206 163.608 539.168 163.232 539.098 162.86C539.022 162.489 538.914 162.127 538.768 161.779C538.623 161.426 538.444 161.092 538.232 160.777C538.021 160.462 537.786 160.171 537.518 159.903C537.25 159.635 536.953 159.395 536.638 159.183C536.323 158.976 535.994 158.798 535.641 158.652C535.293 158.506 534.931 158.398 534.56 158.323C534.188 158.247 533.812 158.21 533.431 158.21H533.323C531.009 155.755 528.828 153.183 526.777 150.502C524.727 147.822 522.818 145.043 521.05 142.165C519.282 139.292 517.664 136.334 516.202 133.292C514.734 130.254 513.422 127.146 512.275 123.972C511.123 120.802 510.14 117.576 509.317 114.303C508.494 111.031 507.841 107.72 507.356 104.381C506.872 101.043 506.557 97.6851 506.416 94.3135C506.27 90.9419 506.298 87.5703 506.501 84.1987V84.0388C506.519 82.9102 506.538 81.9415 506.538 81.0575V78.0667L509.477 77.5542C522.009 74.8127 534.282 71.1871 546.292 66.6916L543.932 60.207C532.303 64.5662 520.429 68.0835 508.302 70.7592L499.64 72.2593V81.0575C499.64 81.8804 499.64 82.8209 499.602 83.9165V84.0764C499.122 95.3622 500.26 106.479 503.007 117.431C505.32 125.815 508.579 133.809 512.783 141.422C516.987 149.035 522.018 156.051 527.882 162.475C527.765 162.903 527.699 163.335 527.68 163.777C527.666 164.219 527.699 164.661 527.784 165.094C527.868 165.531 528 165.95 528.179 166.354C528.362 166.759 528.588 167.14 528.856 167.488C529.124 167.84 529.429 168.16 529.768 168.442C530.111 168.724 530.483 168.964 530.878 169.162C531.273 169.359 531.691 169.505 532.119 169.608C532.552 169.707 532.989 169.759 533.431 169.759Z" fill="#E4E7EC"/>
<path d="M630.22 77.1115C629.618 77.1068 629.035 77.1961 628.461 77.3795C627.888 77.5582 627.356 77.8216 626.867 78.1695C626.378 78.5175 625.95 78.9313 625.588 79.411C625.231 79.8906 624.949 80.4126 624.751 80.9816C624.554 81.5459 624.446 82.129 624.431 82.7309C624.417 83.3328 624.493 83.9206 624.662 84.4943C624.831 85.0727 625.085 85.6087 625.419 86.1072C625.753 86.6056 626.157 87.0383 626.632 87.4098C624.892 117.665 613.884 144.384 592.987 169.029L598.253 173.492C604.385 166.391 609.812 158.787 614.523 150.671C619.235 142.559 623.157 134.081 626.284 125.231C630.465 113.033 632.882 100.492 633.54 87.6073C634.043 87.2593 634.476 86.8361 634.847 86.347C635.214 85.8533 635.496 85.3172 635.694 84.7388C635.891 84.1557 635.995 83.5585 635.999 82.9425C636.009 82.3312 635.919 81.7293 635.731 81.1462C635.548 80.5584 635.275 80.0176 634.918 79.5191C634.56 79.0207 634.137 78.5881 633.639 78.226C633.145 77.8639 632.604 77.5864 632.021 77.3936C631.438 77.2056 630.841 77.1115 630.225 77.1115H630.22Z" fill="#E4E7EC"/>
<path d="M556.886 200.704C556.364 200.709 555.852 200.779 555.353 200.921L553.27 199.326C485.706 147.774 486.665 93.894 487.079 70.8898L480.181 70.7676C479.715 80.257 480.148 89.7088 481.488 99.1136C482.828 108.523 485.043 117.721 488.142 126.703C498.44 155.533 518.943 181.815 549.085 204.814L551.121 206.366C551.121 206.404 551.121 206.441 551.121 206.479C551.116 206.855 551.154 207.231 551.229 207.603C551.305 207.974 551.413 208.336 551.559 208.689C551.704 209.037 551.878 209.371 552.09 209.686C552.301 210.001 552.541 210.292 552.809 210.56C553.077 210.829 553.369 211.068 553.684 211.28C553.999 211.492 554.333 211.67 554.681 211.816C555.034 211.962 555.391 212.07 555.762 212.145C556.139 212.216 556.51 212.253 556.891 212.253C557.272 212.253 557.648 212.22 558.02 212.145C558.391 212.07 558.753 211.962 559.101 211.816C559.454 211.67 559.783 211.492 560.098 211.285C560.413 211.073 560.709 210.833 560.977 210.565C561.245 210.297 561.485 210.006 561.692 209.691C561.904 209.375 562.082 209.042 562.228 208.694C562.374 208.341 562.482 207.979 562.557 207.607C562.633 207.236 562.666 206.86 562.666 206.483C562.666 206.103 562.633 205.726 562.557 205.355C562.482 204.983 562.374 204.621 562.228 204.273C562.082 203.921 561.904 203.587 561.697 203.272C561.485 202.957 561.245 202.665 560.977 202.397C560.709 202.129 560.418 201.889 560.103 201.678C559.788 201.471 559.454 201.292 559.101 201.146C558.753 201 558.391 200.892 558.02 200.817C557.648 200.742 557.272 200.704 556.891 200.704H556.886Z" fill="#E4E7EC"/>
<path fill-rule="evenodd" clip-rule="evenodd" d="M592.32 86.5699C581.006 84.0353 569.988 80.5555 559.272 76.1305L556.991 75.002L554.71 76.1305C543.994 80.5602 532.976 84.04 521.662 86.5699L517.397 87.3081V91.639C517.397 92.2974 517.397 93.0404 517.369 93.8915L517.369 93.8944C517.143 106.611 516.614 136.38 553.869 164.813L556.991 167.197L560.113 164.813C597.371 136.396 596.844 106.616 596.613 93.9056C596.595 93.0404 596.585 92.2927 596.585 91.6531V87.3034L592.32 86.5699ZM557.993 116.187C559.497 117.406 561.739 118.101 561.739 118.101C561.013 123.325 557.401 126.566 557.187 126.754C556.974 126.566 553.362 123.325 552.633 118.101C552.633 118.101 554.869 117.409 556.37 116.193C556.914 115.754 557.13 115.028 556.92 114.361C556.196 112.051 554.482 109.081 551.058 107.443C551.058 107.443 551.887 108.767 552.229 109.693C552.229 109.693 551.608 108.739 546.866 107.189C545.633 106.788 544.179 106.439 542.351 106C541.146 105.71 539.779 105.382 538.204 104.974C533.391 103.726 532.325 100.821 532.115 99.5819C532.115 99.5819 532.963 100.522 536.501 101.453C538.595 102.007 542.024 102.267 545.014 102.494L545.014 102.494L545.014 102.494L545.015 102.494L545.015 102.494C545.806 102.554 546.567 102.612 547.264 102.672C554.952 103.33 556.971 107.782 557.187 108.32C557.404 107.782 559.423 103.33 567.111 102.672C567.807 102.612 568.568 102.554 569.359 102.494C572.348 102.267 575.776 102.007 577.871 101.453C581.411 100.522 582.257 99.5819 582.257 99.5819C582.047 100.821 580.984 103.726 576.168 104.974C574.592 105.383 573.223 105.711 572.017 106.001L572.017 106.001L572.017 106.001L572.017 106.001C570.192 106.44 568.741 106.788 567.509 107.189C562.764 108.739 562.143 109.693 562.146 109.693C562.485 108.767 563.317 107.443 563.317 107.443C559.885 109.084 558.173 112.06 557.449 114.373C557.244 115.031 557.458 115.751 557.993 116.187ZM567.404 118.873C569.124 118.873 570.899 118.534 572.491 117.588C574.601 116.332 575.704 114.714 576.279 113.359C576.678 113.994 577.105 114.771 577.484 115.663C578.466 117.964 578.814 120.237 578.523 122.444C578.523 122.444 577.156 120.095 575.105 118.662C575.105 118.662 575.034 121.499 574.607 124.131C574.51 124.991 574.359 125.971 574.123 127.027C573.491 129.87 572.121 133.746 569.164 137.255C569.164 137.255 569.07 134.19 568.07 132.63C568.07 132.63 567.68 134.581 565.162 137.967C563.952 139.596 561.705 141.918 557.187 144.598C552.667 141.918 550.42 139.596 549.21 137.967C546.695 134.581 546.302 132.63 546.302 132.63C545.302 134.19 545.211 137.255 545.211 137.255C542.254 133.746 540.884 129.87 540.249 127.027C540.013 125.971 539.862 124.991 539.765 124.131C539.341 121.499 539.267 118.662 539.267 118.662C537.216 120.095 535.849 122.444 535.849 122.444C535.561 120.237 535.906 117.964 536.888 115.663C537.27 114.771 537.697 113.994 538.093 113.359C538.668 114.714 539.771 116.332 541.884 117.588C543.476 118.534 545.248 118.873 546.968 118.873C548.065 118.873 549.141 118.736 550.138 118.531C550.5 120.667 551.801 125.082 556.447 128.936L557.187 129.548L557.925 128.936C562.573 125.082 563.872 120.667 564.237 118.531C565.231 118.736 566.307 118.873 567.404 118.873ZM557.187 98.192C560.437 98.1949 563.59 99.1006 566.316 100.781C561.403 101.311 558.543 103.162 557.187 104.444C555.829 103.162 552.969 101.311 548.056 100.781C550.782 99.1006 553.935 98.1949 557.187 98.192ZM566.569 109.579C568.472 108.713 570.995 108.087 574.143 107.452C576.168 107.041 578.033 106.466 579.426 105.757C586.017 102.413 584.251 94.6887 584.251 94.6887C582.468 97.4259 580.4 98.7731 577.304 99.5364C575.521 99.9778 573.436 100.18 569.885 100.476C566.333 97.4914 561.847 95.8536 557.187 95.8508C552.525 95.8536 548.042 97.4914 544.487 100.476C540.936 100.18 538.851 99.9778 537.068 99.5364C533.975 98.7731 531.904 97.4259 530.124 94.6887C530.124 94.6887 528.355 102.413 534.946 105.757C536.339 106.466 538.207 107.041 540.232 107.452C543.376 108.087 545.903 108.713 547.803 109.579C552.195 111.579 553.607 113.972 554.023 114.677C554.06 114.739 554.089 114.788 554.111 114.823C548.882 117.537 545.282 116.839 543.083 115.575C540.112 113.869 539.278 110.681 539.175 109.158C539.175 109.158 536.236 111.186 534.729 114.746C533.992 116.497 533.522 118.272 533.439 120.032C533.26 123.874 534.379 126.794 535.128 128.289C536.139 126.136 537.455 124.566 537.455 124.566C537.56 125.461 537.72 126.46 537.962 127.537C538.492 129.912 539.304 132.163 540.374 134.222C541.722 136.808 543.479 139.101 545.604 141.038L547.723 142.966L547.563 140.109L547.562 140.084L547.562 140.084C547.559 140.015 547.55 139.804 547.543 139.488C549.52 142.143 552.568 144.658 556.615 146.976L557.187 147.304L557.76 146.976C561.807 144.658 564.855 142.143 566.829 139.488C566.822 139.804 566.813 140.015 566.81 140.084L566.809 140.109L566.652 142.966L568.771 141.038C570.893 139.101 572.653 136.808 573.998 134.222C575.071 132.163 575.883 129.912 576.413 127.537C576.652 126.46 576.812 125.461 576.917 124.566C576.917 124.566 578.236 126.136 579.244 128.289C579.993 126.794 581.115 123.874 580.933 120.032C580.85 118.272 580.383 116.497 579.643 114.746C578.139 111.186 575.199 109.158 575.199 109.158C575.097 110.681 574.262 113.869 571.292 115.575C569.093 116.839 565.493 117.537 560.261 114.823C560.284 114.787 560.314 114.736 560.353 114.671C560.775 113.959 562.188 111.574 566.569 109.579ZM552.127 114.07C548.818 116.169 545.662 115.622 543.973 114.653C542.022 113.531 541.21 111.62 540.928 110.279C541.39 111.577 542.292 113.061 543.956 114.018C545.668 115.001 548.345 115.596 552.127 114.07ZM570.406 114.653C568.72 115.622 565.564 116.169 562.252 114.07C566.034 115.596 568.712 115.001 570.426 114.018C572.09 113.061 572.993 111.577 573.454 110.279C573.172 111.62 572.36 113.531 570.406 114.653ZM553.886 119.034C555.914 118.316 556.632 116.539 556.632 116.539C555.726 122.218 556.839 124.935 556.839 124.935C554.917 123.061 553.886 119.034 553.886 119.034Z" fill="#E4E7EC"/>
<rect y="80.6123" width="99.375" height="85.1084" rx="42.5542" fill="white"/>
<path d="M1013.62 123.166C1013.62 99.6645 1032.68 80.6123 1056.18 80.6123H1070.45C1093.95 80.6123 1113 99.6645 1113 123.166V123.166C1113 146.669 1093.95 165.721 1070.45 165.721H1056.18C1032.68 165.721 1013.62 146.669 1013.62 123.166V123.166Z" fill="white"/>
</svg>
