<svg width="1120" height="311" viewBox="0 0 1120 311" fill="none" xmlns="http://www.w3.org/2000/svg">
<rect width="986" height="310" transform="translate(66 0.164062)" fill="#F3F8F3"/>
<path d="M615.298 117.264C615.279 116.168 615.265 115.134 615.265 114.245V105.452L606.599 103.947C595.196 101.445 584.018 98.1722 573.066 94.1375C572.925 93.7566 572.746 93.3993 572.53 93.056C572.314 92.7174 572.06 92.4024 571.778 92.1108C571.495 91.824 571.185 91.5653 570.851 91.3443C570.513 91.1186 570.155 90.9305 569.779 90.7847C569.408 90.6343 569.017 90.5261 568.622 90.4556C568.223 90.3897 567.823 90.3615 567.418 90.3756C567.014 90.3944 566.614 90.4509 566.224 90.5496C565.829 90.6484 565.453 90.7847 565.091 90.9634C564.729 91.1421 564.385 91.3584 564.07 91.6076C563.751 91.8569 563.464 92.1343 563.2 92.4447C562.942 92.755 562.716 93.0889 562.528 93.4416C562.335 93.799 562.185 94.1752 562.072 94.5608C561.964 94.9511 561.893 95.3461 561.86 95.7505C561.832 96.1502 561.846 96.5546 561.903 96.9543C561.954 97.354 562.053 97.7443 562.189 98.1252C562.326 98.5061 562.5 98.8682 562.711 99.2114C562.923 99.5547 563.172 99.8745 563.45 100.166C563.727 100.458 564.033 100.721 564.367 100.947C564.7 101.177 565.053 101.37 565.429 101.52C565.801 101.675 566.186 101.788 566.586 101.864C566.981 101.939 567.386 101.967 567.79 101.958C568.19 101.948 568.589 101.896 568.984 101.802C569.375 101.708 569.756 101.577 570.122 101.403C570.484 101.229 570.832 101.022 571.152 100.777C582.344 104.892 593.766 108.217 605.423 110.746L608.362 111.254V114.245C608.362 115.209 608.381 116.258 608.405 117.386C608.701 134.164 609.401 173.443 560.12 211.053L555.874 214.293L560.059 219.762L564.305 216.527C586.59 199.532 601.765 180.079 609.397 158.711C611.692 152.052 613.337 145.239 614.33 138.27C615.322 131.301 615.646 124.299 615.298 117.264Z" fill="#E4E7EC"/>
<mask id="mask0_549_22943" style="mask-type:luminance" maskUnits="userSpaceOnUse" x="486" y="65" width="147" height="32">
<path d="M486.059 65.1641H632.924V96.4444H486.059V65.1641Z" fill="white"/>
</mask>
<g mask="url(#mask0_549_22943)">
<path d="M492.575 96.1858C493.121 96.1858 493.657 96.1105 494.179 95.9601C494.705 95.8049 495.194 95.5839 495.655 95.2923C496.116 95.0008 496.53 94.6528 496.892 94.2437C497.254 93.8346 497.55 93.3832 497.785 92.8894C517.413 88.1118 536.576 81.8764 555.263 74.1927L557.953 72.8619L560.642 74.1927C568.147 77.9029 605 90.7357 622.738 93.8299L630.633 95.1983L631.813 88.4033L623.918 87.0349C603.303 82.4219 583.228 76.0783 563.699 68.009L557.953 65.1641L552.202 68.009C534.069 75.4576 515.481 81.5002 496.431 86.1274C496.083 85.817 495.702 85.549 495.288 85.3279C494.879 85.1069 494.447 84.9376 493.991 84.8248C493.539 84.7072 493.074 84.6461 492.608 84.6461C492.138 84.6414 491.677 84.6931 491.221 84.806C490.769 84.9141 490.332 85.074 489.914 85.2903C489.5 85.5066 489.114 85.77 488.766 86.0756C488.414 86.386 488.103 86.7293 487.835 87.1149C487.567 87.5005 487.351 87.9096 487.182 88.3469C487.012 88.7842 486.899 89.2356 486.843 89.7012C486.782 90.162 486.782 90.6275 486.838 91.0931C486.89 91.5586 487.003 92.0101 487.167 92.4474C487.332 92.8894 487.548 93.2985 487.812 93.6841C488.08 94.0697 488.385 94.4177 488.733 94.728C489.086 95.0431 489.467 95.3064 489.881 95.5227C490.295 95.7438 490.732 95.9083 491.183 96.0212C491.639 96.1294 492.1 96.1858 492.571 96.1858H492.575Z" fill="#E4E7EC"/>
</g>
<path d="M534.431 202.923C534.812 202.923 535.188 202.89 535.56 202.815C535.931 202.739 536.293 202.631 536.641 202.486C536.994 202.34 537.323 202.161 537.638 201.949C537.953 201.743 538.25 201.503 538.518 201.235C538.786 200.967 539.021 200.675 539.232 200.36C539.444 200.045 539.623 199.711 539.768 199.358C539.914 199.01 540.022 198.648 540.098 198.277C540.168 197.905 540.206 197.529 540.206 197.148C540.206 196.772 540.168 196.396 540.098 196.024C540.022 195.653 539.914 195.291 539.768 194.943C539.623 194.59 539.444 194.256 539.232 193.941C539.021 193.626 538.786 193.335 538.518 193.067C538.25 192.799 537.953 192.559 537.638 192.347C537.323 192.14 536.994 191.962 536.641 191.816C536.293 191.67 535.931 191.562 535.56 191.487C535.188 191.411 534.812 191.374 534.431 191.374H534.323C532.009 188.919 529.828 186.347 527.777 183.667C525.727 180.986 523.818 178.207 522.05 175.329C520.282 172.456 518.664 169.498 517.202 166.456C515.734 163.418 514.422 160.31 513.275 157.136C512.123 153.966 511.14 150.74 510.317 147.467C509.494 144.195 508.841 140.884 508.356 137.545C507.872 134.207 507.557 130.849 507.416 127.478C507.27 124.106 507.298 120.734 507.501 117.363V117.203C507.519 116.074 507.538 115.106 507.538 114.222V111.231L510.477 110.718C523.009 107.977 535.282 104.351 547.292 99.8557L544.932 93.3711C533.303 97.7302 521.429 101.248 509.302 103.923L500.64 105.423V114.222C500.64 115.044 500.64 115.985 500.602 117.081V117.24C500.122 128.526 501.26 139.643 504.007 150.595C506.32 158.979 509.579 166.973 513.783 174.586C517.987 182.199 523.018 189.215 528.882 195.639C528.765 196.067 528.699 196.499 528.68 196.941C528.666 197.383 528.699 197.825 528.784 198.258C528.868 198.695 529 199.114 529.179 199.518C529.362 199.923 529.588 200.304 529.856 200.652C530.124 201.004 530.429 201.324 530.768 201.606C531.111 201.888 531.483 202.128 531.878 202.326C532.273 202.523 532.691 202.669 533.119 202.772C533.552 202.871 533.989 202.923 534.431 202.923Z" fill="#E4E7EC"/>
<path d="M631.22 110.276C630.618 110.271 630.035 110.36 629.461 110.544C628.888 110.722 628.356 110.986 627.867 111.334C627.378 111.682 626.95 112.095 626.588 112.575C626.231 113.055 625.949 113.577 625.751 114.146C625.554 114.71 625.446 115.293 625.431 115.895C625.417 116.497 625.493 117.085 625.662 117.658C625.831 118.237 626.085 118.773 626.419 119.271C626.753 119.77 627.157 120.202 627.632 120.574C625.892 150.829 614.884 177.548 593.987 202.193L599.253 206.656C605.385 199.555 610.812 191.952 615.523 183.835C620.235 175.724 624.157 167.245 627.284 158.395C631.465 146.197 633.882 133.656 634.54 120.771C635.043 120.423 635.476 120 635.847 119.511C636.214 119.017 636.496 118.481 636.694 117.903C636.891 117.32 636.995 116.723 636.999 116.107C637.009 115.495 636.919 114.893 636.731 114.31C636.548 113.722 636.275 113.182 635.918 112.683C635.56 112.185 635.137 111.752 634.639 111.39C634.145 111.028 633.604 110.751 633.021 110.558C632.438 110.37 631.841 110.276 631.225 110.276H631.22Z" fill="#E4E7EC"/>
<path d="M557.886 233.868C557.364 233.873 556.852 233.944 556.353 234.085L554.27 232.491C486.706 180.938 487.665 127.058 488.079 104.054L481.181 103.932C480.715 113.421 481.148 122.873 482.488 132.278C483.828 141.687 486.043 150.885 489.142 159.867C499.44 188.697 519.943 214.979 550.085 237.978L552.121 239.53C552.121 239.568 552.121 239.605 552.121 239.643C552.116 240.019 552.154 240.395 552.229 240.767C552.305 241.138 552.413 241.5 552.559 241.853C552.704 242.201 552.878 242.535 553.09 242.85C553.301 243.165 553.541 243.456 553.809 243.725C554.077 243.993 554.369 244.232 554.684 244.444C554.999 244.656 555.333 244.834 555.681 244.98C556.034 245.126 556.391 245.234 556.762 245.309C557.139 245.38 557.51 245.417 557.891 245.417C558.272 245.417 558.648 245.384 559.02 245.309C559.391 245.234 559.753 245.126 560.101 244.98C560.454 244.834 560.783 244.656 561.098 244.449C561.413 244.237 561.709 243.997 561.977 243.729C562.245 243.461 562.485 243.17 562.692 242.855C562.904 242.54 563.082 242.206 563.228 241.858C563.374 241.505 563.482 241.143 563.557 240.771C563.633 240.4 563.666 240.024 563.666 239.648C563.666 239.267 563.633 238.89 563.557 238.519C563.482 238.147 563.374 237.785 563.228 237.437C563.082 237.085 562.904 236.751 562.697 236.436C562.485 236.121 562.245 235.829 561.977 235.561C561.709 235.293 561.418 235.053 561.103 234.842C560.788 234.635 560.454 234.456 560.101 234.31C559.753 234.165 559.391 234.056 559.02 233.981C558.648 233.906 558.272 233.868 557.891 233.868H557.886Z" fill="#E4E7EC"/>
<path fill-rule="evenodd" clip-rule="evenodd" d="M593.32 119.734C582.006 117.199 570.988 113.72 560.272 109.295L557.991 108.166L555.71 109.295C544.994 113.724 533.976 117.204 522.662 119.734L518.397 120.472V124.803C518.397 125.461 518.397 126.204 518.369 127.056L518.369 127.058C518.143 139.775 517.614 169.544 554.869 197.977L557.991 200.361L561.113 197.977C598.371 169.561 597.844 139.78 597.613 127.07C597.595 126.204 597.585 125.457 597.585 124.817V120.467L593.32 119.734ZM558.993 149.351C560.497 150.57 562.739 151.265 562.739 151.265C562.013 156.489 558.401 159.73 558.187 159.918C557.974 159.73 554.362 156.489 553.633 151.265C553.633 151.265 555.869 150.573 557.37 149.357C557.914 148.918 558.13 148.192 557.92 147.525C557.196 145.215 555.482 142.245 552.058 140.607C552.058 140.607 552.887 141.931 553.229 142.857C553.229 142.857 552.608 141.903 547.866 140.354C546.633 139.952 545.179 139.603 543.351 139.164C542.146 138.874 540.779 138.546 539.204 138.138C534.391 136.89 533.325 133.985 533.115 132.746C533.115 132.746 533.963 133.686 537.501 134.617C539.595 135.171 543.024 135.431 546.014 135.658L546.014 135.658L546.014 135.658L546.015 135.658L546.015 135.658C546.806 135.718 547.567 135.776 548.264 135.836C555.952 136.494 557.971 140.946 558.187 141.484C558.404 140.946 560.423 136.494 568.111 135.836C568.807 135.776 569.568 135.718 570.359 135.658C573.348 135.432 576.776 135.171 578.871 134.617C582.411 133.686 583.257 132.746 583.257 132.746C583.047 133.985 581.984 136.89 577.168 138.138C575.592 138.547 574.223 138.876 573.017 139.165L573.017 139.165L573.017 139.165L573.017 139.165C571.192 139.604 569.741 139.952 568.509 140.354C563.764 141.903 563.143 142.857 563.146 142.857C563.485 141.931 564.317 140.607 564.317 140.607C560.885 142.248 559.173 145.224 558.449 147.537C558.244 148.195 558.458 148.915 558.993 149.351ZM568.404 152.037C570.124 152.037 571.899 151.698 573.491 150.752C575.601 149.496 576.704 147.879 577.279 146.523C577.678 147.158 578.105 147.935 578.484 148.827C579.466 151.128 579.814 153.401 579.523 155.609C579.523 155.609 578.156 153.259 576.105 151.826C576.105 151.826 576.034 154.663 575.607 157.295C575.51 158.155 575.359 159.135 575.123 160.191C574.491 163.034 573.121 166.91 570.164 170.419C570.164 170.419 570.07 167.355 569.07 165.794C569.07 165.794 568.68 167.745 566.162 171.131C564.952 172.76 562.705 175.082 558.187 177.762C553.667 175.082 551.42 172.76 550.21 171.131C547.695 167.745 547.302 165.794 547.302 165.794C546.302 167.355 546.211 170.419 546.211 170.419C543.254 166.91 541.884 163.034 541.249 160.191C541.013 159.135 540.862 158.155 540.765 157.295C540.341 154.663 540.267 151.826 540.267 151.826C538.216 153.259 536.849 155.609 536.849 155.609C536.561 153.401 536.906 151.128 537.888 148.827C538.27 147.935 538.697 147.158 539.093 146.523C539.668 147.879 540.771 149.496 542.884 150.752C544.476 151.698 546.248 152.037 547.968 152.037C549.065 152.037 550.141 151.9 551.138 151.695C551.5 153.831 552.801 158.246 557.447 162.1L558.187 162.712L558.925 162.1C563.573 158.246 564.872 153.831 565.237 151.695C566.231 151.9 567.307 152.037 568.404 152.037ZM558.187 131.356C561.437 131.359 564.59 132.265 567.316 133.945C562.403 134.475 559.543 136.326 558.187 137.608C556.829 136.326 553.969 134.475 549.056 133.945C551.782 132.265 554.935 131.359 558.187 131.356ZM567.569 142.743C569.472 141.877 571.995 141.251 575.143 140.616C577.168 140.205 579.033 139.63 580.426 138.921C587.017 135.577 585.251 127.853 585.251 127.853C583.468 130.59 581.4 131.937 578.304 132.7C576.521 133.142 574.436 133.344 570.885 133.64C567.333 130.655 562.847 129.018 558.187 129.015C553.525 129.018 549.042 130.655 545.487 133.64C541.936 133.344 539.851 133.142 538.068 132.7C534.975 131.937 532.904 130.59 531.124 127.853C531.124 127.853 529.355 135.577 535.946 138.921C537.339 139.63 539.207 140.205 541.232 140.616C544.376 141.251 546.903 141.877 548.803 142.743C553.195 144.743 554.607 147.136 555.023 147.841C555.06 147.903 555.089 147.952 555.111 147.987C549.882 150.701 546.282 150.003 544.083 148.739C541.112 147.033 540.278 143.845 540.175 142.322C540.175 142.322 537.236 144.35 535.729 147.91C534.992 149.661 534.522 151.436 534.439 153.196C534.26 157.038 535.379 159.958 536.128 161.453C537.139 159.3 538.455 157.73 538.455 157.73C538.56 158.625 538.72 159.625 538.962 160.701C539.492 163.077 540.304 165.327 541.374 167.386C542.722 169.972 544.479 172.265 546.604 174.202L548.723 176.13L548.563 173.273L548.562 173.248L548.562 173.248C548.559 173.179 548.55 172.968 548.543 172.652C550.52 175.307 553.568 177.822 557.615 180.14L558.187 180.468L558.76 180.14C562.807 177.822 565.855 175.307 567.829 172.652C567.822 172.968 567.813 173.179 567.81 173.248L567.809 173.273L567.652 176.13L569.771 174.202C571.893 172.265 573.653 169.972 574.998 167.386C576.071 165.327 576.883 163.077 577.413 160.701C577.652 159.625 577.812 158.625 577.917 157.73C577.917 157.73 579.236 159.3 580.244 161.453C580.993 159.958 582.115 157.038 581.933 153.196C581.85 151.436 581.383 149.661 580.643 147.91C579.139 144.35 576.199 142.322 576.199 142.322C576.097 143.845 575.262 147.033 572.292 148.739C570.093 150.003 566.493 150.701 561.261 147.987C561.284 147.951 561.314 147.9 561.353 147.835C561.775 147.123 563.188 144.738 567.569 142.743ZM553.127 147.234C549.818 149.333 546.662 148.786 544.973 147.818C543.022 146.695 542.21 144.784 541.928 143.443C542.39 144.741 543.292 146.225 544.956 147.182C546.668 148.165 549.345 148.76 553.127 147.234ZM571.406 147.818C569.72 148.786 566.564 149.333 563.252 147.234C567.034 148.76 569.712 148.165 571.426 147.182C573.09 146.225 573.993 144.741 574.454 143.443C574.172 144.784 573.36 146.695 571.406 147.818ZM554.886 152.198C556.914 151.48 557.632 149.703 557.632 149.703C556.726 155.382 557.839 158.099 557.839 158.099C555.917 156.225 554.886 152.198 554.886 152.198Z" fill="#E4E7EC"/>
<rect y="91.1641" width="100" height="100" rx="50" fill="white"/>
<rect x="1020" y="91.1641" width="100" height="100" rx="50" fill="white"/>
</svg>
