<svg width="25" height="25" viewBox="0 0 25 25" fill="none" xmlns="http://www.w3.org/2000/svg">
<g id="material-symbols:help-outline-rounded">
<path id="Vector" d="M12.1521 18.5706C12.5021 18.5706 12.7981 18.4496 13.0401 18.2076C13.2821 17.9656 13.4028 17.6699 13.4021 17.3206C13.4021 16.9706 13.2815 16.6746 13.0401 16.4326C12.7988 16.1906 12.5028 16.0699 12.1521 16.0706C11.8021 16.0706 11.5065 16.1916 11.2651 16.4336C11.0238 16.6756 10.9028 16.9712 10.9021 17.3206C10.9021 17.6706 11.0231 17.9666 11.2651 18.2086C11.5071 18.4506 11.8028 18.5712 12.1521 18.5706ZM12.2021 22.5706C10.8188 22.5706 9.51882 22.3079 8.30215 21.7826C7.08548 21.2572 6.02715 20.5449 5.12715 19.6456C4.22715 18.7456 3.51482 17.6872 2.99015 16.4706C2.46548 15.2539 2.20282 13.9539 2.20215 12.5706C2.20215 11.1872 2.46482 9.88722 2.99015 8.67056C3.51548 7.45389 4.22782 6.39556 5.12715 5.49556C6.02715 4.59556 7.08548 3.88322 8.30215 3.35856C9.51882 2.83389 10.8188 2.57122 12.2021 2.57056C13.5855 2.57056 14.8855 2.83322 16.1021 3.35856C17.3188 3.88389 18.3771 4.59622 19.2771 5.49556C20.1771 6.39556 20.8898 7.45389 21.4151 8.67056C21.9405 9.88722 22.2028 11.1872 22.2021 12.5706C22.2021 13.9539 21.9395 15.2539 21.4141 16.4706C20.8888 17.6872 20.1765 18.7456 19.2771 19.6456C18.3771 20.5456 17.3188 21.2582 16.1021 21.7836C14.8855 22.3089 13.5855 22.5712 12.2021 22.5706ZM12.2021 20.5706C14.4355 20.5706 16.3271 19.7956 17.8771 18.2456C19.4271 16.6956 20.2021 14.8039 20.2021 12.5706C20.2021 10.3372 19.4271 8.44556 17.8771 6.89556C16.3271 5.34556 14.4355 4.57056 12.2021 4.57056C9.96881 4.57056 8.07715 5.34556 6.52715 6.89556C4.97715 8.44556 4.20215 10.3372 4.20215 12.5706C4.20215 14.8039 4.97715 16.6956 6.52715 18.2456C8.07715 19.7956 9.96881 20.5706 12.2021 20.5706ZM12.3021 8.27056C12.7188 8.27056 13.0815 8.40389 13.3901 8.67056C13.6988 8.93722 13.8528 9.27056 13.8521 9.67056C13.8521 10.0372 13.7398 10.3622 13.5151 10.6456C13.2905 10.9289 13.0361 11.1956 12.7521 11.4456C12.3688 11.7789 12.0315 12.1456 11.7401 12.5456C11.4488 12.9456 11.3028 13.3956 11.3021 13.8956C11.3021 14.1289 11.3898 14.3249 11.5651 14.4836C11.7405 14.6422 11.9445 14.7212 12.1771 14.7206C12.4271 14.7206 12.6398 14.6372 12.8151 14.4706C12.9905 14.3039 13.1028 14.0956 13.1521 13.8456C13.2188 13.4956 13.3688 13.1829 13.6021 12.9076C13.8355 12.6322 14.0855 12.3699 14.3521 12.1206C14.7355 11.7539 15.0648 11.3539 15.3401 10.9206C15.6155 10.4872 15.7528 10.0039 15.7521 9.47056C15.7521 8.62056 15.4061 7.92489 14.7141 7.38356C14.0221 6.84222 13.2181 6.57122 12.3021 6.57056C11.6688 6.57056 11.0648 6.70389 10.4901 6.97056C9.91548 7.23722 9.47782 7.64556 9.17715 8.19556C9.06048 8.39556 9.02282 8.60822 9.06415 8.83356C9.10548 9.05889 9.21815 9.22956 9.40215 9.34556C9.63548 9.47889 9.87715 9.52056 10.1271 9.47056C10.3771 9.42056 10.5855 9.27889 10.7521 9.04556C10.9355 8.79556 11.1648 8.60389 11.4401 8.47056C11.7155 8.33722 12.0028 8.27056 12.3021 8.27056Z" fill="#595959"/>
</g>
</svg>
