<svg width="24" height="24" viewBox="0 0 24 24" fill="fill" xmlns="http://www.w3.org/2000/svg">
<g id="material-symbols:credit-score-outline-rounded">
<path id="Vector" d="M4 8H20V6H4V8ZM2 6C2 5.45 2.196 4.979 2.588 4.587C2.98 4.195 3.45067 3.99934 4 4H20C20.55 4 21.021 4.196 21.413 4.588C21.805 4.98 22.0007 5.45067 22 6V12H4V18H6.15C6.43334 18 6.66667 18.096 6.85 18.288C7.03334 18.48 7.125 18.7173 7.125 19C7.125 19.2833 7.025 19.521 6.825 19.713C6.625 19.905 6.38334 20.0007 6.1 20H4C3.45 20 2.979 19.804 2.587 19.412C2.195 19.02 1.99934 18.5493 2 18V6ZM14.95 19.15L19.9 14.2C20.0833 14.0167 20.3127 13.925 20.588 13.925C20.8633 13.925 21.1007 14.025 21.3 14.225C21.5 14.425 21.596 14.6667 21.588 14.95C21.58 15.2333 21.4757 15.475 21.275 15.675L15.65 21.3C15.45 21.5 15.2167 21.6 14.95 21.6C14.6833 21.6 14.45 21.5 14.25 21.3L11.375 18.425C11.1917 18.2417 11.1 18.0167 11.1 17.75C11.1 17.4833 11.2 17.25 11.4 17.05C11.5833 16.8667 11.8127 16.775 12.088 16.775C12.3633 16.775 12.6007 16.8667 12.8 17.05L14.95 19.15ZM4 6V18V14.75V16.325V6Z" fill="fill"/>
</g>
</svg>
