<svg width="14" height="14" viewBox="0 0 14 14" fill="none" xmlns="http://www.w3.org/2000/svg">
<g id="pepicons-pop:duplicate">
<g id="Group">
<path id="Vector" fill-rule="evenodd" clip-rule="evenodd" d="M10.8503 4.54993H5.25029C5.06464 4.54993 4.88659 4.62368 4.75532 4.75495C4.62404 4.88623 4.55029 5.06428 4.55029 5.24993V10.8499C4.55029 11.0356 4.62404 11.2136 4.75532 11.3449C4.88659 11.4762 5.06464 11.5499 5.25029 11.5499H10.8503C11.0359 11.5499 11.214 11.4762 11.3453 11.3449C11.4765 11.2136 11.5503 11.0356 11.5503 10.8499V5.24993C11.5503 5.06428 11.4765 4.88623 11.3453 4.75495C11.214 4.62368 11.0359 4.54993 10.8503 4.54993ZM5.95029 10.1499V5.94993H10.1503V10.1499H5.95029Z" fill="white"/>
<path id="Vector_2" d="M4.5502 9.44995H3.1502C2.96454 9.44995 2.7865 9.3762 2.65522 9.24493C2.52395 9.11365 2.4502 8.9356 2.4502 8.74995V3.14995C2.4502 2.9643 2.52395 2.78625 2.65522 2.65498C2.7865 2.5237 2.96454 2.44995 3.1502 2.44995H8.7502C8.93585 2.44995 9.11389 2.5237 9.24517 2.65498C9.37645 2.78625 9.4502 2.9643 9.4502 3.14995V4.54995H8.0502V3.84995H3.8502V8.04995H4.5502V9.44995Z" fill="white"/>
</g>
</g>
</svg>
