<svg width="25" height="27" viewBox="0 0 25 27" fill="fill" xmlns="http://www.w3.org/2000/svg">
<path d="M0.273438 0.327637V26.2926H2.43719V17.6376H24.0747V0.327637H0.273438ZM2.43719 2.49139H5.68281V5.73701H8.92844V2.49139H12.1741V5.73701H15.4197V2.49139H18.6653V5.73701H21.9109V8.98264H18.6653V12.2283H21.9109V15.4739H18.6653V12.2283H15.4197V15.4739H12.1741V12.2283H8.92844V15.4739H5.68281V12.2283H2.43719V8.98264H5.68281V5.73701H2.43719V2.49139ZM5.68281 8.98264V12.2283H8.92844V8.98264H5.68281ZM8.92844 8.98264H12.1741V5.73701H8.92844V8.98264ZM12.1741 8.98264V12.2283H15.4197V8.98264H12.1741ZM15.4197 8.98264H18.6653V5.73701H15.4197V8.98264Z" fill="fill"/>
</svg>
