<svg width="14" height="14" viewBox="0 0 14 14" fill="none" xmlns="http://www.w3.org/2000/svg">
<path d="M6.99984 9.91663C7.16511 9.91663 7.30375 9.86063 7.41575 9.74863C7.52775 9.63663 7.58356 9.49818 7.58317 9.33329V6.99996C7.58317 6.83468 7.52717 6.69604 7.41517 6.58404C7.30317 6.47204 7.16473 6.41624 6.99984 6.41663C6.83456 6.41663 6.69592 6.47263 6.58392 6.58463C6.47192 6.69663 6.41611 6.83507 6.4165 6.99996V9.33329C6.4165 9.49857 6.4725 9.63721 6.5845 9.74921C6.6965 9.86121 6.83495 9.91701 6.99984 9.91663ZM6.99984 5.24996C7.16511 5.24996 7.30375 5.19396 7.41575 5.08196C7.52775 4.96996 7.58356 4.83151 7.58317 4.66663C7.58317 4.50135 7.52717 4.36271 7.41517 4.25071C7.30317 4.13871 7.16473 4.0829 6.99984 4.08329C6.83456 4.08329 6.69592 4.13929 6.58392 4.25129C6.47192 4.36329 6.41611 4.50174 6.4165 4.66663C6.4165 4.8319 6.4725 4.97054 6.5845 5.08254C6.6965 5.19454 6.83495 5.25035 6.99984 5.24996ZM6.99984 12.8333C6.19289 12.8333 5.43456 12.6801 4.72484 12.3736C4.01512 12.0672 3.39775 11.6517 2.87275 11.127C2.34775 10.602 1.93223 9.98468 1.62617 9.27496C1.32012 8.56524 1.16689 7.8069 1.1665 6.99996C1.1665 6.19301 1.31973 5.43468 1.62617 4.72496C1.93262 4.01524 2.34814 3.39788 2.87275 2.87288C3.39775 2.34788 4.01512 1.93235 4.72484 1.62629C5.43456 1.32024 6.19289 1.16701 6.99984 1.16663C7.80678 1.16663 8.56511 1.31985 9.27484 1.62629C9.98456 1.93274 10.6019 2.34826 11.1269 2.87288C11.6519 3.39788 12.0676 4.01524 12.3741 4.72496C12.6805 5.43468 12.8336 6.19301 12.8332 6.99996C12.8332 7.8069 12.6799 8.56524 12.3735 9.27496C12.0671 9.98468 11.6515 10.602 11.1269 11.127C10.6019 11.652 9.98456 12.0678 9.27484 12.3742C8.56511 12.6807 7.80678 12.8337 6.99984 12.8333ZM6.99984 11.6666C8.30261 11.6666 9.40609 11.2145 10.3103 10.3104C11.2144 9.40621 11.6665 8.30274 11.6665 6.99996C11.6665 5.69718 11.2144 4.59371 10.3103 3.68954C9.40609 2.78538 8.30261 2.33329 6.99984 2.33329C5.69706 2.33329 4.59359 2.78538 3.68942 3.68954C2.78525 4.59371 2.33317 5.69718 2.33317 6.99996C2.33317 8.30274 2.78525 9.40621 3.68942 10.3104C4.59359 11.2145 5.69706 11.6666 6.99984 11.6666Z" fill="white"/>
</svg>
