<svg width="30" height="30" viewBox="0 0 30 30" fill="none" xmlns="http://www.w3.org/2000/svg">
<path fill-rule="evenodd" clip-rule="evenodd" d="M0.333329 2.94774C0.333329 2.29778 0.591523 1.67445 1.05111 1.21486C1.5107 0.755268 2.13404 0.497074 2.784 0.497074H27.2133C27.5354 0.496548 27.8545 0.559557 28.1522 0.682496C28.4499 0.805434 28.7204 0.985887 28.9483 1.21352C29.1762 1.44116 29.357 1.7115 29.4802 2.00909C29.6035 2.30667 29.6668 2.62564 29.6667 2.94774V27.3771C29.667 27.6992 29.6038 28.0183 29.4808 28.316C29.3577 28.6138 29.1771 28.8843 28.9494 29.1122C28.7216 29.34 28.4512 29.5207 28.1535 29.644C27.8559 29.7672 27.5368 29.8306 27.2147 29.8304H2.784C2.46206 29.8304 2.14327 29.767 1.84586 29.6437C1.54844 29.5205 1.27822 29.3399 1.05064 29.1122C0.823058 28.8844 0.642571 28.6141 0.519492 28.3166C0.396413 28.0192 0.333153 27.7003 0.333329 27.3784V2.94774ZM11.944 11.6811H15.916V13.6757C16.4893 12.5291 17.956 11.4971 20.16 11.4971C24.3853 11.4971 25.3867 13.7811 25.3867 17.9717V25.7344H21.1107V18.9264C21.1107 16.5397 20.5373 15.1931 19.0813 15.1931C17.0613 15.1931 16.2213 16.6451 16.2213 18.9264V25.7344H11.944V11.6811ZM4.61066 25.5517H8.888V11.4971H4.61066V25.5517ZM9.5 6.91307C9.50806 7.2793 9.44289 7.64346 9.30832 7.98416C9.17374 8.32486 8.97246 8.63525 8.7163 8.89712C8.46014 9.15898 8.15426 9.36704 7.8166 9.50908C7.47894 9.65113 7.11631 9.7243 6.75 9.7243C6.38368 9.7243 6.02105 9.65113 5.68339 9.50908C5.34573 9.36704 5.03985 9.15898 4.78369 8.89712C4.52753 8.63525 4.32625 8.32486 4.19168 7.98416C4.0571 7.64346 3.99193 7.2793 4 6.91307C4.01583 6.19421 4.31251 5.51013 4.82651 5.00732C5.34051 4.50452 6.03096 4.22296 6.75 4.22296C7.46903 4.22296 8.15948 4.50452 8.67348 5.00732C9.18748 5.51013 9.48417 6.19421 9.5 6.91307Z" fill="white"/>
</svg>
