<svg width="83" height="96" viewBox="0 0 83 96" fill="none" xmlns="http://www.w3.org/2000/svg">
<path d="M70.9558 27.5256C70.9459 26.9467 70.9384 26.4001 70.9384 25.9305V21.2845L66.3595 20.4895C60.3346 19.1677 54.429 17.4385 48.6426 15.3068C48.5681 15.1056 48.4737 14.9168 48.3594 14.7354C48.2451 14.5565 48.1109 14.3901 47.9619 14.236C47.8128 14.0845 47.6488 13.9478 47.4724 13.8311C47.2935 13.7118 47.1047 13.6124 46.906 13.5354C46.7097 13.4559 46.5035 13.3988 46.2948 13.3615C46.0836 13.3267 45.8724 13.3118 45.6587 13.3193C45.4451 13.3292 45.2339 13.359 45.0277 13.4112C44.819 13.4634 44.6202 13.5354 44.4289 13.6298C44.2376 13.7242 44.0562 13.8385 43.8898 13.9702C43.7208 14.1019 43.5693 14.2485 43.4302 14.4124C43.2935 14.5764 43.1743 14.7528 43.0749 14.9391C42.973 15.128 42.8935 15.3267 42.8339 15.5305C42.7767 15.7367 42.7395 15.9454 42.7221 16.159C42.7072 16.3702 42.7146 16.5839 42.7444 16.7951C42.7718 17.0062 42.8239 17.2125 42.896 17.4137C42.968 17.6149 43.06 17.8062 43.1718 17.9876C43.2836 18.169 43.4153 18.3379 43.5618 18.492C43.7084 18.646 43.8699 18.7851 44.0463 18.9044C44.2227 19.0261 44.409 19.128 44.6078 19.2075C44.8041 19.2895 45.0078 19.3491 45.219 19.3889C45.4277 19.4286 45.6414 19.4435 45.855 19.4386C46.0662 19.4336 46.2774 19.4063 46.4861 19.3566C46.6923 19.3069 46.8935 19.2373 47.0873 19.1454C47.2786 19.0535 47.4625 18.9441 47.6314 18.8149C53.5445 20.9889 59.5793 22.7454 65.7384 24.0821L67.2912 24.3504V25.9305C67.2912 26.4398 67.3011 26.9939 67.3135 27.5902C67.4701 36.4548 67.8402 57.2077 41.8028 77.0787L39.5593 78.7905L41.7705 81.6799L44.014 79.9706C55.788 70.9917 63.8054 60.7133 67.8378 49.4238C69.0502 45.9058 69.9198 42.3058 70.444 38.6238C70.9682 34.9418 71.1396 31.2424 70.9558 27.5256Z" fill="#F2994A"/>
<mask id="mask0_155_20485" style="mask-type:luminance" maskUnits="userSpaceOnUse" x="2" y="0" width="79" height="17">
<path d="M2.67285 0H80.2684V16.5268H2.67285V0Z" fill="white"/>
</mask>
<g mask="url(#mask0_155_20485)">
<path d="M6.11563 16.3902C6.40384 16.3902 6.68707 16.3504 6.96284 16.2709C7.24111 16.1889 7.49949 16.0721 7.74297 15.9181C7.98645 15.7641 8.20509 15.5802 8.39639 15.3641C8.5877 15.1479 8.74422 14.9094 8.86845 14.6485C19.2387 12.1243 29.363 8.82987 39.2363 4.77022L40.6575 4.06711L42.0786 4.77022C46.0438 6.73048 65.5148 13.5106 74.8863 15.1454L79.0577 15.8684L79.6813 12.2783L75.5099 11.5554C64.6179 9.11807 54.0116 5.7665 43.6935 1.50312L40.6575 0L37.6189 1.50312C28.0388 5.43854 18.2176 8.63111 8.15291 11.0758C7.96906 10.9119 7.76782 10.7703 7.54918 10.6535C7.33303 10.5367 7.10446 10.4473 6.86347 10.3876C6.62495 10.3255 6.37899 10.2932 6.13303 10.2932C5.88458 10.2907 5.6411 10.3181 5.4001 10.3777C5.16159 10.4348 4.93053 10.5193 4.70941 10.6336C4.49078 10.7479 4.28705 10.887 4.1032 11.0485C3.91686 11.2125 3.75289 11.3939 3.61127 11.5976C3.46966 11.8013 3.35537 12.0175 3.26593 12.2485C3.17649 12.4796 3.11686 12.7181 3.08704 12.9641C3.05475 13.2075 3.05475 13.4535 3.08456 13.6995C3.11189 13.9454 3.17152 14.1839 3.25847 14.415C3.34543 14.6485 3.45972 14.8647 3.59885 15.0684C3.74046 15.2721 3.90196 15.456 4.08581 15.62C4.27214 15.7864 4.47339 15.9256 4.69202 16.0399C4.91066 16.1566 5.14172 16.2436 5.38023 16.3032C5.62122 16.3603 5.8647 16.3902 6.11315 16.3902H6.11563Z" fill="#F2994A"/>
</g>
<path d="M28.2301 72.7854C28.4313 72.7854 28.6301 72.768 28.8263 72.7283C29.0226 72.6885 29.2139 72.6314 29.3978 72.5544C29.5841 72.4773 29.758 72.3829 29.9245 72.2711C30.091 72.1618 30.2475 72.0351 30.3891 71.8935C30.5307 71.7519 30.6549 71.5978 30.7667 71.4314C30.8785 71.2649 30.9729 71.0885 31.05 70.9022C31.127 70.7183 31.1841 70.527 31.2239 70.3307C31.2611 70.1345 31.281 69.9357 31.281 69.7345C31.281 69.5357 31.2611 69.3369 31.2239 69.1407C31.1841 68.9444 31.127 68.7531 31.05 68.5692C30.9729 68.3829 30.8785 68.2065 30.7667 68.04C30.6549 67.8736 30.5307 67.7195 30.3891 67.5779C30.2475 67.4363 30.091 67.3096 29.9245 67.1978C29.758 67.0885 29.5841 66.9941 29.3978 66.917C29.2139 66.84 29.0226 66.7829 28.8263 66.7431C28.6301 66.7034 28.4313 66.6835 28.2301 66.6835H28.1729C26.9506 65.3866 25.7978 64.0276 24.7145 62.6114C23.6313 61.1953 22.6226 59.7269 21.6884 58.2064C20.7542 56.6884 19.8996 55.1257 19.1269 53.5182C18.3517 51.9132 17.6586 50.271 17.0524 48.594C16.4437 46.9194 15.9244 45.215 15.4896 43.4858C15.0548 41.7566 14.7095 40.0076 14.4536 38.2436C14.1977 36.4796 14.0312 34.7057 13.9567 32.9243C13.8797 31.1429 13.8946 29.3615 14.0014 27.5802V27.4957C14.0113 26.8994 14.0213 26.3876 14.0213 25.9205V24.3404L15.5741 24.0696C22.1952 22.6211 28.6798 20.7056 35.0251 18.3304L33.7779 14.9043C27.6338 17.2074 21.3605 19.0658 14.953 20.4795L10.3765 21.272V25.9205C10.3765 26.3553 10.3765 26.8522 10.3567 27.4311V27.5156C10.1032 33.4783 10.7045 39.3517 12.1554 45.138C13.3778 49.5679 15.0996 53.7915 17.3207 57.8139C19.5418 61.8363 22.2002 65.5431 25.2984 68.9369C25.2363 69.163 25.2015 69.3916 25.1915 69.6251C25.1841 69.8587 25.2015 70.0922 25.2462 70.3208C25.2909 70.5519 25.3605 70.773 25.4549 70.9866C25.5518 71.2003 25.671 71.4016 25.8127 71.5854C25.9543 71.7717 26.1158 71.9407 26.2947 72.0898C26.476 72.2388 26.6723 72.3655 26.881 72.4699C27.0897 72.5742 27.3108 72.6512 27.5369 72.7059C27.7655 72.7581 27.9965 72.7854 28.2301 72.7854Z" fill="#F2994A"/>
<path d="M79.368 23.8331C79.05 23.8306 78.7419 23.8778 78.4388 23.9747C78.1357 24.0691 77.8549 24.2083 77.5965 24.3921C77.3381 24.576 77.1121 24.7946 76.9208 25.048C76.7319 25.3014 76.5829 25.5772 76.4785 25.8778C76.3742 26.176 76.317 26.484 76.3096 26.8021C76.3021 27.1201 76.3419 27.4306 76.4313 27.7337C76.5208 28.0393 76.6549 28.3226 76.8313 28.5859C77.0077 28.8493 77.2214 29.0779 77.4723 29.2741C76.553 45.2593 70.7369 59.3762 59.6958 72.3974L62.4784 74.7552C65.7182 71.0036 68.5853 66.9862 71.0748 62.6979C73.5642 58.4122 75.6363 53.9327 77.2885 49.2569C79.4972 42.8121 80.7742 36.186 81.122 29.3785C81.3879 29.1946 81.6164 28.971 81.8127 28.7126C82.0065 28.4518 82.1556 28.1685 82.2599 27.8629C82.3643 27.5549 82.4189 27.2393 82.4214 26.9139C82.4264 26.5909 82.3792 26.2729 82.2798 25.9648C82.1829 25.6542 82.0388 25.3685 81.85 25.1052C81.6612 24.8418 81.4376 24.6132 81.1742 24.4219C80.9133 24.2306 80.6276 24.084 80.3195 23.9822C80.0115 23.8828 79.6959 23.8331 79.3705 23.8331H79.368Z" fill="#F2994A"/>
<path d="M40.6225 89.1333C40.3467 89.1358 40.0759 89.173 39.8126 89.2476L38.7119 88.4053C3.0148 61.1679 3.52164 32.7006 3.74027 20.5465L0.0955307 20.4819C-0.150434 25.4956 0.0781394 30.4894 0.786218 35.4584C1.4943 40.4299 2.66449 45.2895 4.30177 50.0349C9.7428 65.2673 20.5752 79.1531 36.5007 91.3047L37.5765 92.1246C37.5765 92.1445 37.5765 92.1644 37.5765 92.1842C37.574 92.383 37.5939 92.5818 37.6337 92.778C37.6734 92.9743 37.7306 93.1656 37.8076 93.352C37.8846 93.5358 37.9765 93.7122 38.0883 93.8787C38.2001 94.0451 38.3268 94.1992 38.4684 94.3408C38.6101 94.4824 38.7641 94.6091 38.9306 94.7209C39.097 94.8327 39.2734 94.9271 39.4573 95.0041C39.6436 95.0812 39.8324 95.1383 40.0287 95.178C40.2275 95.2153 40.4237 95.2352 40.625 95.2352C40.8262 95.2352 41.025 95.2178 41.2213 95.178C41.4175 95.1383 41.6088 95.0812 41.7927 95.0041C41.979 94.9271 42.1529 94.8327 42.3194 94.7234C42.4859 94.6116 42.6424 94.4849 42.784 94.3433C42.9256 94.2016 43.0523 94.0476 43.1616 93.8811C43.2734 93.7147 43.3679 93.5383 43.4449 93.3544C43.5219 93.1681 43.579 92.9768 43.6188 92.7805C43.6585 92.5842 43.6759 92.3855 43.6759 92.1867C43.6759 91.9855 43.6585 91.7867 43.6188 91.5904C43.579 91.3942 43.5219 91.2029 43.4449 91.019C43.3679 90.8327 43.2734 90.6563 43.1641 90.4898C43.0523 90.3234 42.9256 90.1693 42.784 90.0277C42.6424 89.8861 42.4883 89.7594 42.3219 89.6476C42.1554 89.5383 41.979 89.4438 41.7927 89.3668C41.6088 89.2898 41.4175 89.2327 41.2213 89.1929C41.025 89.1532 40.8262 89.1333 40.625 89.1333H40.6225Z" fill="#F2994A"/>
<path fill-rule="evenodd" clip-rule="evenodd" d="M59.344 28.8306C53.3663 27.4915 47.5451 25.6529 41.883 23.315L40.678 22.7188L39.473 23.315C33.8109 25.6554 27.9897 27.4939 22.0121 28.8306L19.7586 29.2207V31.5089C19.7586 31.8567 19.7586 32.2492 19.7437 32.6989L19.7437 32.7005C19.6244 39.4194 19.3452 55.1474 39.0283 70.17L40.678 71.4296L42.3277 70.17C62.0123 55.1562 61.734 39.422 61.6123 32.7064C61.6024 32.2492 61.5974 31.8542 61.5974 31.5163V29.2182L59.344 28.8306ZM41.2076 44.478C42.0022 45.122 43.1865 45.4892 43.1865 45.4892C42.8028 48.2491 40.8946 49.9616 40.7818 50.0609C40.6689 49.9616 38.7608 48.2491 38.3755 45.4892C38.3755 45.4892 39.5568 45.1235 40.3499 44.481C40.6373 44.2492 40.7517 43.8655 40.6403 43.5134C40.2581 42.2929 39.3522 40.7234 37.5434 39.8581C37.5434 39.8581 37.9813 40.5579 38.1619 41.0469C38.1619 41.0469 37.8338 40.5428 35.3283 39.7242C34.6769 39.5119 33.909 39.3275 32.943 39.0955L32.9429 39.0955C32.3065 38.9427 31.584 38.7692 30.7521 38.5534C28.2089 37.8943 27.6461 36.3594 27.5347 35.7048C27.5347 35.7048 27.9832 36.2014 29.8522 36.6935C30.9586 36.9861 32.7705 37.1236 34.3501 37.2435H34.3502C34.7685 37.2752 35.1706 37.3057 35.5389 37.3375C39.6005 37.6851 40.6674 40.0372 40.7818 40.3216C40.8961 40.0372 41.9631 37.6851 46.0246 37.3375C46.3927 37.3057 46.7944 37.2752 47.2124 37.2435H47.2124C48.7918 37.1237 50.6032 36.9862 51.7099 36.6935C53.5804 36.2014 54.0273 35.7048 54.0273 35.7048C53.9159 36.3594 53.3546 37.8943 50.81 38.5534C49.9773 38.7695 49.2542 38.9432 48.6173 39.0962L48.6172 39.0963L48.617 39.0963L48.617 39.0963L48.6169 39.0963C47.6527 39.3279 46.8859 39.5122 46.2353 39.7242C43.7282 40.5428 43.4002 41.0469 43.4017 41.0469C43.5808 40.5579 44.0202 39.8581 44.0202 39.8581C42.2068 40.7249 41.3024 42.2975 40.9202 43.5194C40.8119 43.867 40.9247 44.2477 41.2076 44.478ZM46.1796 45.897C47.0885 45.897 48.026 45.7179 48.8672 45.2183C49.9823 44.5547 50.5647 43.7 50.8687 42.9837C51.0793 43.3192 51.3051 43.7301 51.5052 44.2011C52.0244 45.417 52.208 46.6178 52.0545 47.7841C52.0545 47.7841 51.3321 46.5426 50.2487 45.7857C50.2487 45.7857 50.211 47.2845 49.9853 48.6749C49.9342 49.1294 49.8544 49.6471 49.7295 50.2054C49.3954 51.7072 48.6716 53.7553 47.1096 55.6092C47.1096 55.6092 47.0599 53.99 46.5317 53.1654C46.5317 53.1654 46.3256 54.1962 44.9953 55.9854C44.3557 56.8462 43.1684 58.0726 40.7818 59.4887C38.3936 58.0726 37.2063 56.8462 36.5667 55.9854C35.238 54.1962 35.0303 53.1654 35.0303 53.1654C34.5021 53.99 34.4539 55.6092 34.4539 55.6092C32.8919 53.7553 32.1681 51.7072 31.8325 50.2054C31.7076 49.6471 31.6279 49.1294 31.5767 48.6749C31.3525 47.2845 31.3134 45.7857 31.3134 45.7857C30.2299 46.5426 29.5076 47.7841 29.5076 47.7841C29.3556 46.6178 29.5377 45.417 30.0568 44.2011C30.2585 43.7301 30.4842 43.3192 30.6934 42.9837C30.9973 43.7 31.5797 44.5547 32.6963 45.2183C33.5375 45.7179 34.4735 45.897 35.3824 45.897C35.9618 45.897 36.5306 45.8248 37.0573 45.7164C37.2484 46.8451 37.9361 49.1776 40.3905 51.2136L40.7818 51.5371L41.1715 51.2136C43.6274 49.1776 44.3136 46.8451 44.5062 45.7164C45.0314 45.8248 45.6002 45.897 46.1796 45.897ZM40.7818 34.9704C42.4988 34.9719 44.1646 35.4505 45.6048 36.3383C43.0089 36.6182 41.4981 37.5964 40.7818 38.2735C40.064 37.5964 38.5531 36.6182 35.9573 36.3383C37.3974 35.4505 39.0632 34.9719 40.7818 34.9704ZM45.7387 40.9867C46.7439 40.5293 48.0772 40.1982 49.74 39.8626C50.81 39.6459 51.7956 39.342 52.5315 38.9673C56.0137 37.2006 55.0807 33.1195 55.0807 33.1195C54.1387 34.5656 53.0462 35.2774 51.4104 35.6807C50.4684 35.914 49.3668 36.0208 47.4903 36.1773C45.6138 34.6002 43.2437 33.735 40.7818 33.7334C38.3184 33.735 35.9497 34.6002 34.0717 36.1773C32.1952 36.0208 31.0937 35.914 30.1516 35.6807C28.5174 35.2774 27.4234 34.5656 26.4828 33.1195C26.4828 33.1195 25.5483 37.2006 29.0305 38.9673C29.7664 39.342 30.7536 39.6459 31.8235 39.8626C33.4848 40.1982 34.8196 40.5293 35.8233 40.9867C38.1443 42.0435 38.8901 43.3074 39.11 43.6802C39.1293 43.713 39.1446 43.7389 39.1565 43.7571C36.3937 45.1912 34.4916 44.8226 33.3298 44.1544C31.7603 43.253 31.3194 41.5691 31.2652 40.764C31.2652 40.764 29.7122 41.8355 28.9162 43.7165C28.5264 44.642 28.2781 45.5795 28.2345 46.5095C28.1397 48.5395 28.7311 50.082 29.1268 50.872C29.6611 49.7343 30.3563 48.9052 30.3563 48.9052C30.412 49.3777 30.4962 49.9059 30.6241 50.4747C30.904 51.7297 31.3329 52.9186 31.8987 54.0066C32.6105 55.3729 33.539 56.5843 34.6616 57.6076L35.7812 58.6264L35.6969 57.1171L35.6964 57.1039C35.6948 57.0672 35.6901 56.9561 35.6864 56.789C36.7308 58.1915 38.3409 59.5203 40.4793 60.7452L40.7818 60.9183L41.0842 60.7452C43.2226 59.5203 44.8328 58.1915 45.8756 56.789C45.8719 56.9561 45.8672 57.0672 45.8656 57.1039L45.8651 57.1171L45.7823 58.6264L46.9019 57.6076C48.023 56.5843 48.953 55.3729 49.6633 54.0066C50.2306 52.9186 50.6595 51.7297 50.9394 50.4747C51.0658 49.9059 51.1501 49.3777 51.2057 48.9052C51.2057 48.9052 51.9025 49.7343 52.4352 50.872C52.831 50.082 53.4239 48.5395 53.3276 46.5095C53.2839 45.5795 53.0371 44.642 52.6459 43.7165C51.8513 41.8355 50.2983 40.764 50.2983 40.764C50.2442 41.5691 49.8032 43.253 48.2337 44.1544C47.072 44.8226 45.1699 45.1912 42.4055 43.7571C42.4179 43.7383 42.4338 43.7114 42.4541 43.6772C42.6772 43.3007 43.4239 42.0407 45.7387 40.9867ZM38.1083 43.36C36.3597 44.469 34.6923 44.1801 33.8 43.6685C32.7692 43.0756 32.3403 42.0658 32.1913 41.357C32.4351 42.0432 32.9121 42.8273 33.7909 43.3329C34.6953 43.8521 36.1099 44.1666 38.1083 43.36ZM47.7659 43.6685C46.875 44.1801 45.2077 44.469 43.4575 43.36C45.456 44.1666 46.8705 43.8521 47.7764 43.3329C48.6552 42.8273 49.1323 42.0432 49.3761 41.357C49.2271 42.0658 48.7982 43.0756 47.7659 43.6685ZM39.0374 45.9827C40.1088 45.6035 40.488 44.6645 40.488 44.6645C40.0095 47.6651 40.5979 49.1007 40.5979 49.1007C39.5821 48.1105 39.0374 45.9827 39.0374 45.9827Z" fill="#F2994A"/>
</svg>
