<svg width="117" height="94" viewBox="0 0 117 94" fill="none" xmlns="http://www.w3.org/2000/svg">
<path d="M81.2186 21.0239C81.211 20.5818 81.2053 20.1643 81.2053 19.8057V16.2571L77.708 15.6499C73.1062 14.6403 68.5956 13.3196 64.176 11.6914C64.1191 11.5377 64.047 11.3935 63.9597 11.255C63.8724 11.1183 63.7699 10.9912 63.6561 10.8735C63.5422 10.7578 63.417 10.6534 63.2822 10.5642C63.1456 10.4731 63.0014 10.3972 62.8496 10.3384C62.6996 10.2777 62.5421 10.234 62.3827 10.2056C62.2214 10.179 62.0601 10.1676 61.897 10.1733C61.7338 10.1809 61.5725 10.2037 61.415 10.2435C61.2556 10.2834 61.1037 10.3384 60.9576 10.4105C60.8115 10.4826 60.673 10.5699 60.5458 10.6705C60.4168 10.7711 60.301 10.883 60.1948 11.0083C60.0904 11.1335 59.9993 11.2682 59.9234 11.4106C59.8456 11.5548 59.7849 11.7066 59.7394 11.8622C59.6957 12.0197 59.6672 12.1791 59.654 12.3423C59.6426 12.5036 59.6483 12.6668 59.671 12.8281C59.6919 12.9894 59.7318 13.1469 59.7868 13.3006C59.8418 13.4543 59.912 13.6004 59.9974 13.7389C60.0828 13.8775 60.1834 14.0065 60.2954 14.1242C60.4073 14.2418 60.5307 14.3481 60.6654 14.4392C60.8001 14.5322 60.9424 14.61 61.0943 14.6707C61.2442 14.7333 61.3998 14.7788 61.5611 14.8092C61.7205 14.8396 61.8837 14.851 62.0469 14.8472C62.2082 14.8434 62.3695 14.8225 62.5289 14.7845C62.6864 14.7466 62.8401 14.6935 62.9881 14.6232C63.1342 14.553 63.2746 14.4695 63.4037 14.3709C67.92 16.0313 72.5294 17.3729 77.2336 18.3938L78.4196 18.5988V19.8057C78.4196 20.1947 78.4272 20.6178 78.4367 21.0733C78.5562 27.844 78.839 43.6949 58.9518 58.8721L57.2383 60.1796L58.9272 62.3865L60.6407 61.0809C69.6336 54.2229 75.7572 46.3724 78.8371 37.7496C79.7631 35.0626 80.4273 32.3129 80.8277 29.5006C81.2281 26.6883 81.359 23.8628 81.2186 21.0239Z" fill="#FFC72C"/>
<mask id="mask0_53_16893" style="mask-type:luminance" maskUnits="userSpaceOnUse" x="29" y="0" width="60" height="13">
<path d="M29.0645 0H88.3311V12.623H29.0645V0Z" fill="white"/>
</mask>
<g mask="url(#mask0_53_16893)">
<path d="M31.6943 12.5186C31.9144 12.5186 32.1307 12.4883 32.3413 12.4276C32.5539 12.3649 32.7512 12.2757 32.9372 12.1581C33.1232 12.0404 33.2902 11.9 33.4363 11.7349C33.5824 11.5698 33.7019 11.3877 33.7968 11.1884C41.7175 9.26042 49.4503 6.74416 56.9915 3.64344L58.077 3.10641L59.1624 3.64344C62.191 5.14067 77.0627 10.3193 84.2205 11.5679L87.4067 12.1201L87.883 9.37807L84.6968 8.82586C76.3777 6.96429 68.2767 4.40439 60.3959 1.14806L58.077 0L55.7562 1.14806C48.4389 4.1539 40.9376 6.59235 33.2503 8.45962C33.1099 8.33437 32.9562 8.22621 32.7892 8.13702C32.6241 8.04783 32.4495 7.97952 32.2654 7.93397C32.0833 7.88653 31.8954 7.86187 31.7075 7.86187C31.5178 7.85997 31.3318 7.88084 31.1477 7.92638C30.9656 7.97003 30.7891 8.03455 30.6202 8.12184C30.4532 8.20913 30.2976 8.3154 30.1572 8.43874C30.0149 8.56399 29.8896 8.70251 29.7815 8.85812C29.6733 9.01372 29.586 9.17882 29.5177 9.3553C29.4494 9.53178 29.4038 9.71395 29.3811 9.90181C29.3564 10.0878 29.3564 10.2756 29.3792 10.4635C29.4 10.6514 29.4456 10.8335 29.512 11.01C29.5784 11.1884 29.6657 11.3535 29.772 11.5091C29.8801 11.6647 30.0035 11.8051 30.1439 11.9304C30.2862 12.0575 30.4399 12.1638 30.6069 12.2511C30.7739 12.3403 30.9504 12.4067 31.1326 12.4522C31.3166 12.4959 31.5026 12.5186 31.6924 12.5186H31.6943Z" fill="#FFC72C"/>
</g>
<path d="M48.5852 55.5928C48.7389 55.5928 48.8907 55.5795 49.0406 55.5491C49.1905 55.5188 49.3367 55.4751 49.4771 55.4163C49.6194 55.3575 49.7522 55.2854 49.8794 55.2C50.0065 55.1165 50.1261 55.0197 50.2342 54.9115C50.3424 54.8034 50.4373 54.6857 50.5227 54.5586C50.6081 54.4314 50.6802 54.2967 50.739 54.1544C50.7978 54.014 50.8415 53.8678 50.8718 53.7179C50.9003 53.568 50.9155 53.4162 50.9155 53.2625C50.9155 53.1107 50.9003 52.9589 50.8718 52.809C50.8415 52.6591 50.7978 52.5129 50.739 52.3725C50.6802 52.2302 50.6081 52.0955 50.5227 51.9683C50.4373 51.8412 50.3424 51.7235 50.2342 51.6154C50.1261 51.5072 50.0065 51.4104 49.8794 51.325C49.7522 51.2415 49.6194 51.1694 49.4771 51.1106C49.3367 51.0518 49.1905 51.0081 49.0406 50.9778C48.8907 50.9474 48.7389 50.9322 48.5852 50.9322H48.5416C47.6079 49.9417 46.7274 48.9037 45.9001 47.822C45.0727 46.7404 44.3023 45.6189 43.5888 44.4575C42.8752 43.2981 42.2225 42.1045 41.6323 40.8767C41.0402 39.6508 40.5108 38.3965 40.0478 37.1156C39.5829 35.8366 39.1863 34.5348 38.8542 33.2141C38.5221 31.8933 38.2583 30.5574 38.0629 29.2101C37.8674 27.8628 37.7403 26.5079 37.6833 25.1473C37.6245 23.7867 37.6359 22.4261 37.7175 21.0655V21.001C37.7251 20.5455 37.7327 20.1546 37.7327 19.7979V18.591L38.9187 18.3841C43.9759 17.2778 48.9287 15.8147 53.7752 14.0006L52.8226 11.3838C48.1298 13.1429 43.3383 14.5623 38.4443 15.6421L34.9489 16.2474V19.7979C34.9489 20.1299 34.9489 20.5095 34.9337 20.9516V21.0161C34.7401 25.5704 35.1993 30.0564 36.3076 34.476C37.2412 37.8595 38.5562 41.0854 40.2527 44.1577C41.9492 47.2299 43.9797 50.0612 46.346 52.6534C46.2986 52.826 46.272 53.0006 46.2644 53.179C46.2587 53.3574 46.272 53.5358 46.3062 53.7103C46.3403 53.8868 46.3934 54.0557 46.4656 54.2189C46.5396 54.3821 46.6306 54.5358 46.7388 54.6762C46.847 54.8186 46.9703 54.9476 47.107 55.0614C47.2455 55.1753 47.3954 55.2721 47.5548 55.3518C47.7142 55.4315 47.8831 55.4903 48.0558 55.5321C48.2303 55.5719 48.4068 55.5928 48.5852 55.5928Z" fill="#FFC72C"/>
<path d="M87.6436 18.2037C87.4007 18.2018 87.1654 18.2378 86.9339 18.3118C86.7023 18.384 86.4879 18.4902 86.2906 18.6307C86.0932 18.7711 85.9205 18.9381 85.7744 19.1316C85.6302 19.3252 85.5163 19.5358 85.4366 19.7654C85.3569 19.9931 85.3133 20.2285 85.3076 20.4713C85.3019 20.7142 85.3323 20.9514 85.4006 21.183C85.4689 21.4164 85.5714 21.6327 85.7061 21.8338C85.8408 22.035 86.004 22.2096 86.1957 22.3595C85.4936 34.5688 81.0512 45.3511 72.6182 55.2966L74.7435 57.0974C77.218 54.232 79.4079 51.1636 81.3093 47.8882C83.2107 44.6148 84.7933 41.1934 86.0553 37.6221C87.7422 32.6996 88.7176 27.6387 88.9833 22.4392C89.1863 22.2988 89.3609 22.128 89.5108 21.9306C89.6588 21.7314 89.7727 21.515 89.8524 21.2816C89.9321 21.0463 89.9739 20.8053 89.9757 20.5567C89.9795 20.31 89.9435 20.0672 89.8676 19.8318C89.7936 19.5946 89.6835 19.3764 89.5393 19.1753C89.3951 18.9741 89.2243 18.7995 89.0231 18.6534C88.8239 18.5073 88.6057 18.3953 88.3704 18.3175C88.1351 18.2416 87.8941 18.2037 87.6455 18.2037H87.6436Z" fill="#FFC72C"/>
<path d="M58.0505 68.0792C57.8398 68.0811 57.633 68.1096 57.4319 68.1665L56.5912 67.5232C29.3261 46.7196 29.7132 24.9766 29.8802 15.6934L27.0964 15.644C26.9085 19.4735 27.0831 23.2877 27.6239 27.0829C28.1648 30.8801 29.0585 34.5918 30.3091 38.2163C34.4649 49.8506 42.7385 60.4565 54.9023 69.7378L55.724 70.364C55.724 70.3792 55.724 70.3943 55.724 70.4095C55.7221 70.5613 55.7373 70.7131 55.7676 70.8631C55.798 71.013 55.8416 71.1591 55.9005 71.3014C55.9593 71.4418 56.0295 71.5766 56.1149 71.7037C56.2003 71.8308 56.2971 71.9485 56.4052 72.0567C56.5134 72.1648 56.6311 72.2616 56.7582 72.347C56.8853 72.4324 57.0201 72.5045 57.1605 72.5633C57.3028 72.6222 57.447 72.6658 57.5969 72.6962C57.7488 72.7246 57.8987 72.7398 58.0524 72.7398C58.2061 72.7398 58.3579 72.7265 58.5078 72.6962C58.6577 72.6658 58.8038 72.6222 58.9443 72.5633C59.0866 72.5045 59.2194 72.4324 59.3466 72.3489C59.4737 72.2635 59.5933 72.1667 59.7014 72.0586C59.8096 71.9504 59.9064 71.8327 59.9899 71.7056C60.0752 71.5785 60.1474 71.4437 60.2062 71.3033C60.265 71.161 60.3087 71.0149 60.339 70.865C60.3694 70.715 60.3827 70.5632 60.3827 70.4114C60.3827 70.2577 60.3694 70.1059 60.339 69.956C60.3087 69.8061 60.265 69.66 60.2062 69.5195C60.1474 69.3772 60.0752 69.2425 59.9918 69.1153C59.9064 68.9882 59.8096 68.8705 59.7014 68.7624C59.5933 68.6542 59.4756 68.5574 59.3485 68.472C59.2213 68.3885 59.0866 68.3164 58.9443 68.2576C58.8038 68.1988 58.6577 68.1551 58.5078 68.1248C58.3579 68.0944 58.2061 68.0792 58.0524 68.0792H58.0505Z" fill="#FFC72C"/>
<path fill-rule="evenodd" clip-rule="evenodd" d="M72.3496 22.0207C67.7839 20.9979 63.3378 19.5936 59.0131 17.808L58.0928 17.3525L57.1724 17.808C52.8477 19.5955 48.4016 20.9998 43.8359 22.0207L42.1148 22.3186V24.0663C42.1148 24.332 42.1148 24.6318 42.1034 24.9753L42.1034 24.9765C42.0123 30.1083 41.799 42.1212 56.8327 53.5953L58.0928 54.5574L59.3528 53.5953C74.3877 42.1279 74.1751 30.1103 74.0822 24.981C74.0746 24.6318 74.0708 24.3301 74.0708 24.072V22.3167L72.3496 22.0207ZM58.4967 33.9724C59.1036 34.4644 60.0082 34.7448 60.0082 34.7448C59.7151 36.8528 58.2577 38.1608 58.1715 38.2366C58.0852 38.1608 56.6278 36.8528 56.3336 34.7448C56.3336 34.7448 57.2359 34.4655 57.8416 33.9747C58.0611 33.7977 58.1485 33.5046 58.0634 33.2357C57.7715 32.3035 57.0795 31.1047 55.698 30.4438C55.698 30.4438 56.0325 30.9783 56.1704 31.3519C56.1704 31.3519 55.9198 30.9668 54.0061 30.3416C53.5086 30.1794 52.9221 30.0386 52.1843 29.8614C51.6981 29.7446 51.1463 29.6121 50.5109 29.4473C48.5684 28.9439 48.1386 27.7715 48.0535 27.2716C48.0535 27.2716 48.396 27.6509 49.8235 28.0267C50.6686 28.2503 52.0526 28.3553 53.259 28.4468H53.2591L53.2593 28.4468L53.2596 28.4468L53.26 28.4469C53.5792 28.4711 53.886 28.4944 54.167 28.5186C57.2692 28.7841 58.0841 30.5806 58.1715 30.7979C58.2588 30.5806 59.0737 28.7841 62.1759 28.5186C62.457 28.4944 62.7638 28.4711 63.0831 28.4468C64.2894 28.3553 65.673 28.2503 66.5182 28.0267C67.9469 27.6509 68.2883 27.2716 68.2883 27.2716C68.2032 27.7715 67.7745 28.9439 65.8309 29.4473C65.1948 29.6124 64.6425 29.7451 64.1559 29.862C63.4194 30.0389 62.8337 30.1796 62.3368 30.3416C60.4219 30.9668 60.1714 31.3519 60.1725 31.3519C60.3093 30.9783 60.6449 30.4438 60.6449 30.4438C59.2599 31.1059 58.5691 32.307 58.2772 33.2403C58.1944 33.5058 58.2806 33.7966 58.4967 33.9724ZM62.2943 35.0563C62.9885 35.0563 63.7045 34.9195 64.347 34.5379C65.1987 34.031 65.6435 33.3782 65.8757 32.8311C66.0366 33.0874 66.209 33.4012 66.3619 33.7609C66.7584 34.6896 66.8987 35.6068 66.7814 36.4976C66.7814 36.4976 66.2297 35.5494 65.4022 34.9712C65.4022 34.9712 65.3734 36.116 65.201 37.178C65.162 37.5252 65.101 37.9205 65.0056 38.347C64.7505 39.494 64.1976 41.0583 63.0046 42.4744C63.0046 42.4744 62.9666 41.2376 62.5632 40.6078C62.5632 40.6078 62.4058 41.3951 61.3897 42.7617C60.9012 43.4192 59.9944 44.3559 58.1715 45.4375C56.3474 44.3559 55.4405 43.4192 54.9521 42.7617C53.9372 41.3951 53.7785 40.6078 53.7785 40.6078C53.3751 41.2376 53.3383 42.4744 53.3383 42.4744C52.1453 41.0583 51.5924 39.494 51.3361 38.347C51.2407 37.9205 51.1798 37.5252 51.1407 37.178C50.9695 36.116 50.9396 34.9712 50.9396 34.9712C50.112 35.5494 49.5603 36.4976 49.5603 36.4976C49.4442 35.6068 49.5833 34.6896 49.9799 33.7609C50.1339 33.4012 50.3063 33.0874 50.466 32.8311C50.6982 33.3782 51.143 34.031 51.9959 34.5379C52.6384 34.9195 53.3533 35.0563 54.0475 35.0563C54.49 35.0563 54.9245 35.0011 55.3267 34.9184C55.4727 35.7804 55.998 37.5619 57.8726 39.117L58.1715 39.3642L58.4691 39.117C60.3449 37.5619 60.869 35.7804 61.0162 34.9184C61.4173 35.0011 61.8518 35.0563 62.2943 35.0563ZM58.1715 26.7107C59.4829 26.7118 60.7552 27.0773 61.8552 27.7555C59.8725 27.9692 58.7186 28.7163 58.1715 29.2336C57.6232 28.7163 56.4692 27.9692 54.4866 27.7555C55.5865 27.0773 56.8589 26.7118 58.1715 26.7107ZM61.9575 31.3059C62.7253 30.9565 63.7436 30.7036 65.0137 30.4473C65.8309 30.2818 66.5837 30.0496 67.1458 29.7634C69.8054 28.414 69.0928 25.2969 69.0928 25.2969C68.3733 26.4015 67.5389 26.9451 66.2895 27.2532C65.57 27.4313 64.7286 27.5129 63.2954 27.6325C61.8621 26.4279 60.0518 25.767 58.1715 25.7659C56.2899 25.767 54.4808 26.4279 53.0464 27.6325C51.6131 27.5129 50.7718 27.4313 50.0523 27.2532C48.804 26.9451 47.9684 26.4015 47.2501 25.2969C47.2501 25.2969 46.5363 28.414 49.196 29.7634C49.758 30.0496 50.512 30.2818 51.3292 30.4473C52.5981 30.7036 53.6176 30.9565 54.3843 31.3059C56.157 32.113 56.7266 33.0784 56.8946 33.3631C56.9093 33.3882 56.921 33.4079 56.9301 33.4219C54.8199 34.5172 53.3671 34.2356 52.4797 33.7253C51.2809 33.0368 50.9442 31.7507 50.9028 31.1358C50.9028 31.1358 49.7166 31.9541 49.1086 33.3908C48.8109 34.0977 48.6213 34.8138 48.588 35.5241C48.5155 37.0746 48.9673 38.2527 49.2695 38.8561C49.6776 37.9872 50.2086 37.3539 50.2086 37.3539C50.2511 37.7148 50.3155 38.1182 50.4132 38.5527C50.6269 39.5113 50.9545 40.4193 51.3867 41.2503C51.9303 42.2939 52.6395 43.2192 53.4969 44.0007L54.3521 44.7789L54.2877 43.626L54.2873 43.616L54.2873 43.6159L54.2873 43.6159C54.2861 43.5877 54.2825 43.5029 54.2797 43.3755C55.0773 44.4467 56.3072 45.4616 57.9404 46.3972L58.1715 46.5294L58.4025 46.3972C60.0357 45.4616 61.2656 44.4467 62.0621 43.3755C62.0593 43.503 62.0556 43.5878 62.0545 43.6159L62.0544 43.616L62.054 43.626L61.9908 44.7789L62.846 44.0007C63.7022 43.2192 64.4126 42.2939 64.9551 41.2503C65.3884 40.4193 65.716 39.5113 65.9297 38.5527C66.0263 38.1182 66.0907 37.7148 66.1332 37.3539C66.1332 37.3539 66.6653 37.9872 67.0722 38.8561C67.3745 38.2527 67.8274 37.0746 67.7538 35.5241C67.7205 34.8138 67.532 34.0977 67.2331 33.3908C66.6263 31.9541 65.4401 31.1358 65.4401 31.1358C65.3987 31.7507 65.062 33.0368 63.8632 33.7253C62.9758 34.2356 61.523 34.5172 59.4116 33.4219C59.4211 33.4075 59.4333 33.387 59.4488 33.3608C59.6192 33.0733 60.1895 32.1109 61.9575 31.3059ZM56.1293 33.1183C54.7937 33.9653 53.5202 33.7447 52.8386 33.3539C52.0513 32.901 51.7237 32.1298 51.6099 31.5884C51.7961 32.1125 52.1605 32.7114 52.8317 33.0976C53.5225 33.4941 54.6029 33.7343 56.1293 33.1183ZM63.5063 33.3539C62.8258 33.7447 61.5523 33.9653 60.2156 33.1183C61.742 33.7343 62.8224 33.4941 63.5143 33.0976C64.1855 32.7114 64.5499 32.1125 64.7361 31.5884C64.6223 32.1298 64.2947 32.901 63.5063 33.3539ZM56.839 35.1217C57.6573 34.8321 57.947 34.1149 57.947 34.1149C57.5815 36.4067 58.0309 37.5032 58.0309 37.5032C57.255 36.747 56.839 35.1217 56.839 35.1217Z" fill="#FFC72C"/>
<path d="M6.31385 83.9979C6.31385 85.6957 5.21733 86.3855 3.97932 86.3855C3.09502 86.3855 2.1223 86.0318 1.45024 85.4481L0.619005 88.1364C1.32644 88.8438 2.72362 89.3036 4.19155 89.3036C6.6322 89.3036 9.30276 88.0656 9.30276 84.7761V76.5345H6.31385V83.9979ZM25.5706 82.7245C25.5706 78.303 21.7504 76.1277 18.5139 76.1277C15.2597 76.1277 11.4573 78.303 11.4573 82.7245C11.4573 87.146 15.2597 89.3213 18.5139 89.3213C21.7504 89.3213 25.5706 87.146 25.5706 82.7245ZM22.5109 82.7245C22.5109 85.2536 20.3532 86.4739 18.5139 86.4739C16.6569 86.4739 14.4992 85.2536 14.4992 82.7245C14.4992 80.1954 16.6569 78.9574 18.5139 78.9574C20.3532 78.9574 22.5109 80.1954 22.5109 82.7245ZM17.1344 82.7422C17.1344 83.5734 17.665 84.104 18.5139 84.104C19.3451 84.104 19.8757 83.5734 19.8757 82.7422C19.8757 81.911 19.3451 81.3627 18.5139 81.3627C17.665 81.3627 17.1344 81.911 17.1344 82.7422ZM27.8898 88.9146H30.8787V76.5345H27.8898V88.9146ZM33.2309 86.4208V88.9146H38.8019V86.4208H33.2309ZM40.7742 88.9146H43.7631V76.5345H40.7742V88.9146ZM46.1153 86.4208V88.9146H51.6864V86.4208H46.1153ZM53.6586 76.5345V79.0282H56.6475V76.5345H53.6586ZM53.6586 88.9146H56.6475V80.9559H53.6586V88.9146ZM67.265 88.9146C69.7587 88.9146 71.0497 87.1637 71.0497 85.3597C71.0497 84.1747 70.5015 82.9721 69.3519 82.2293C69.794 81.6103 70.024 80.8675 70.024 80.1247C70.024 78.3207 68.7329 76.5345 66.1508 76.5345H59.3063V78.7806H65.5318C66.5399 78.7806 67.0527 79.4703 67.0527 80.1424C67.0527 80.8321 66.5399 81.5042 65.5318 81.5042H59.3063V83.7149H66.646C67.6541 83.7149 68.1669 84.4047 68.1669 85.0944C68.1669 85.8018 67.6541 86.4916 66.646 86.4916H59.3063V88.9146H67.265ZM72.9412 88.9146H76.1069L80.44 79.8948L84.773 88.9146H87.9388L81.961 76.3576H78.9367L72.9412 88.9146ZM101.804 78.0201C100.248 76.9059 97.6654 76.1984 95.2955 76.1984C92.4304 76.1984 89.8837 77.2596 89.8837 79.9832C89.8837 84.8822 98.5674 83.3258 98.5674 85.5719C98.5674 86.3501 97.5416 86.7038 96.2329 86.7038C94.3582 86.7038 91.8645 86.0318 90.6972 84.9529L89.2293 87.4289C90.7326 88.5962 93.4208 89.3213 95.9322 89.3213C99.0096 89.3213 101.839 88.2248 101.839 85.5012C101.839 80.5668 93.1202 82.1939 93.1202 80.0363C93.1202 79.1873 94.1106 78.8159 95.4193 78.8159C97.0818 78.8159 99.2218 79.4349 100.354 80.4253L101.804 78.0201ZM104.16 76.5345V79.0282H115.214V76.5345H104.16ZM104.16 81.4865V83.9625H115.214V81.4865H104.16ZM104.213 86.4208V88.9146H115.214V86.4208H104.213Z" fill="#FFC72C"/>
</svg>
