<svg width="64" height="8" viewBox="0 0 64 8" fill="none" xmlns="http://www.w3.org/2000/svg">
<path d="M3.44372 4.31054V0.22798H5.07868V4.73621C5.07868 6.53563 3.61786 7.21283 2.2828 7.21283C1.47983 7.21283 0.715564 6.9613 0.328591 6.57433L0.783284 5.10383C1.15091 5.42309 1.683 5.61657 2.16671 5.61657C2.84391 5.61657 3.44372 5.23927 3.44372 4.31054ZM13.9773 3.61399C13.9773 6.03257 11.8877 7.22251 10.1173 7.22251C8.33718 7.22251 6.25721 6.03257 6.25721 3.61399C6.25721 1.19541 8.33718 0.00547083 10.1173 0.00547083C11.8877 0.00547083 13.9773 1.19541 13.9773 3.61399ZM12.3037 3.61399C12.3037 2.23056 11.1234 1.55336 10.1173 1.55336C9.10146 1.55336 7.92119 2.23056 7.92119 3.61399C7.92119 4.99742 9.10146 5.66494 10.1173 5.66494C11.1234 5.66494 12.3037 4.99742 12.3037 3.61399ZM9.36266 3.62366C9.36266 3.16897 9.65289 2.86907 10.1173 2.86907C10.572 2.86907 10.8622 3.16897 10.8622 3.62366C10.8622 4.07836 10.572 4.36859 10.1173 4.36859C9.65289 4.36859 9.36266 4.07836 9.36266 3.62366ZM15.2459 7V0.22798H16.8809V7H15.2459ZM18.1676 5.63592H21.215V7H18.1676V5.63592ZM22.2938 7V0.22798H23.9288V7H22.2938ZM25.2155 5.63592H28.2629V7H25.2155V5.63592ZM29.3417 0.22798H30.9767V1.59206H29.3417V0.22798ZM29.3417 7V2.64656H30.9767V7H29.3417ZM36.7845 7H32.4311V5.67462H36.4459C36.9973 5.67462 37.2779 5.29732 37.2779 4.91035C37.2779 4.53305 36.9973 4.15575 36.4459 4.15575H32.4311V2.94646H35.8364C36.3879 2.94646 36.6684 2.57884 36.6684 2.20154C36.6684 1.83392 36.3879 1.45662 35.8364 1.45662H32.4311V0.22798H36.175C37.5875 0.22798 38.2937 1.20509 38.2937 2.19187C38.2937 2.59819 38.1679 3.00451 37.9261 3.34311C38.5549 3.74943 38.8548 4.40728 38.8548 5.05546C38.8548 6.04224 38.1486 7 36.7845 7ZM39.8894 7L43.169 0.131237H44.8233L48.0932 7H46.3615L43.9913 2.0661L41.6211 7H39.8894ZM55.6776 1.04062L54.8843 2.35633C54.2652 1.81457 53.0946 1.47597 52.1852 1.47597C51.4693 1.47597 50.9275 1.67913 50.9275 2.14349C50.9275 3.32376 55.697 2.43372 55.697 5.13286C55.697 6.6227 54.1491 7.22251 52.4657 7.22251C51.092 7.22251 49.6215 6.82586 48.7992 6.18736L49.6021 4.83295C50.2406 5.42309 51.6047 5.79071 52.6302 5.79071C53.3461 5.79071 53.9072 5.59722 53.9072 5.17155C53.9072 3.94292 49.1571 4.79426 49.1571 2.11447C49.1571 0.624627 50.5502 0.0441682 52.1175 0.0441682C53.4138 0.0441682 54.8263 0.431141 55.6776 1.04062ZM56.9664 0.22798H63.0129V1.59206H56.9664V0.22798ZM56.9664 2.93679H63.0129V4.29119H56.9664V2.93679ZM56.9954 5.63592H63.0129V7H56.9954V5.63592Z" fill="#00A991"/>
</svg>
