<svg width="83" height="96" viewBox="0 0 83 96" fill="none" xmlns="http://www.w3.org/2000/svg">
<path d="M70.9556 27.5256C70.9456 26.9467 70.9382 26.4001 70.9382 25.9305V21.2845L66.3592 20.4895C60.3344 19.1677 54.4287 17.4385 48.6424 15.3068C48.5678 15.1056 48.4734 14.9168 48.3591 14.7354C48.2449 14.5565 48.1107 14.3901 47.9616 14.236C47.8125 14.0845 47.6486 13.9478 47.4722 13.8311C47.2933 13.7118 47.1045 13.6124 46.9057 13.5354C46.7094 13.4559 46.5032 13.3988 46.2945 13.3615C46.0833 13.3267 45.8722 13.3118 45.6585 13.3193C45.4448 13.3292 45.2337 13.359 45.0274 13.4112C44.8187 13.4634 44.62 13.5354 44.4287 13.6298C44.2374 13.7242 44.056 13.8385 43.8895 13.9702C43.7206 14.1019 43.569 14.2485 43.4299 14.4124C43.2933 14.5764 43.174 14.7528 43.0746 14.9391C42.9728 15.128 42.8933 15.3267 42.8336 15.5305C42.7765 15.7367 42.7392 15.9454 42.7218 16.159C42.7069 16.3702 42.7144 16.5839 42.7442 16.7951C42.7715 17.0062 42.8237 17.2125 42.8957 17.4137C42.9678 17.6149 43.0597 17.8062 43.1715 17.9876C43.2833 18.169 43.415 18.3379 43.5616 18.492C43.7082 18.646 43.8697 18.7851 44.0461 18.9044C44.2225 19.0261 44.4088 19.128 44.6076 19.2075C44.8038 19.2895 45.0076 19.3491 45.2187 19.3889C45.4274 19.4286 45.6411 19.4435 45.8548 19.4386C46.066 19.4336 46.2771 19.4063 46.4858 19.3566C46.692 19.3069 46.8933 19.2373 47.0871 19.1454C47.2784 19.0535 47.4622 18.9441 47.6312 18.8149C53.5443 20.9889 59.5791 22.7454 65.7381 24.0821L67.2909 24.3504V25.9305C67.2909 26.4398 67.3009 26.9939 67.3133 27.5902C67.4698 36.4548 67.84 57.2077 41.8026 77.0787L39.5591 78.7905L41.7703 81.6799L44.0138 79.9706C55.7878 70.9917 63.8052 60.7133 67.8375 49.4238C69.0499 45.9058 69.9195 42.3058 70.4437 38.6238C70.968 34.9418 71.1394 31.2424 70.9556 27.5256Z" fill="#F2994A"/>
<mask id="mask0_535_12992" style="mask-type:luminance" maskUnits="userSpaceOnUse" x="2" y="0" width="79" height="17">
<path d="M2.67285 0H80.2684V16.5268H2.67285V0Z" fill="white"/>
</mask>
<g mask="url(#mask0_535_12992)">
<path d="M6.11515 16.3902C6.40335 16.3902 6.68658 16.3504 6.96236 16.2709C7.24062 16.1889 7.49901 16.0721 7.74249 15.9181C7.98597 15.7641 8.2046 15.5802 8.39591 15.3641C8.58721 15.1479 8.74373 14.9094 8.86796 14.6485C19.2382 12.1243 29.3625 8.82987 39.2359 4.77022L40.657 4.06711L42.0781 4.77022C46.0433 6.73048 65.5143 13.5106 74.8858 15.1454L79.0572 15.8684L79.6808 12.2783L75.5094 11.5554C64.6174 9.11807 54.0111 5.7665 43.693 1.50311L40.657 0L37.6184 1.50311C28.0383 5.43854 18.2171 8.63111 8.15243 11.0758C7.96857 10.9119 7.76733 10.7703 7.5487 10.6535C7.33254 10.5367 7.10397 10.4473 6.86298 10.3876C6.62447 10.3255 6.3785 10.2932 6.13254 10.2932C5.88409 10.2907 5.64061 10.3181 5.39961 10.3777C5.1611 10.4348 4.93005 10.5193 4.70893 10.6336C4.49029 10.7479 4.28656 10.887 4.10271 11.0485C3.91637 11.2125 3.7524 11.3939 3.61078 11.5976C3.46917 11.8013 3.35488 12.0175 3.26544 12.2485C3.176 12.4796 3.11637 12.7181 3.08656 12.9641C3.05426 13.2075 3.05426 13.4535 3.08407 13.6995C3.1114 13.9454 3.17103 14.1839 3.25799 14.415C3.34494 14.6485 3.45923 14.8647 3.59836 15.0684C3.73998 15.2721 3.90147 15.456 4.08532 15.62C4.27166 15.7864 4.4729 15.9256 4.69153 16.0399C4.91017 16.1566 5.14123 16.2436 5.37974 16.3032C5.62073 16.3604 5.86421 16.3902 6.11266 16.3902H6.11515Z" fill="#F2994A"/>
</g>
<path d="M28.2306 72.7854C28.4318 72.7854 28.6306 72.768 28.8268 72.7283C29.0231 72.6885 29.2144 72.6314 29.3983 72.5544C29.5846 72.4773 29.7585 72.3829 29.925 72.2711C30.0914 72.1618 30.248 72.0351 30.3896 71.8935C30.5312 71.7519 30.6554 71.5978 30.7672 71.4314C30.879 71.2649 30.9734 71.0885 31.0505 70.9022C31.1275 70.7183 31.1846 70.527 31.2244 70.3307C31.2616 70.1345 31.2815 69.9357 31.2815 69.7345C31.2815 69.5357 31.2616 69.3369 31.2244 69.1407C31.1846 68.9444 31.1275 68.7531 31.0505 68.5692C30.9734 68.3829 30.879 68.2065 30.7672 68.04C30.6554 67.8736 30.5312 67.7195 30.3896 67.5779C30.248 67.4363 30.0914 67.3096 29.925 67.1978C29.7585 67.0885 29.5846 66.9941 29.3983 66.917C29.2144 66.84 29.0231 66.7829 28.8268 66.7431C28.6306 66.7034 28.4318 66.6835 28.2306 66.6835H28.1734C26.951 65.3866 25.7982 64.0276 24.715 62.6114C23.6318 61.1953 22.6231 59.7269 21.6889 58.2064C20.7547 56.6884 19.9001 55.1257 19.1274 53.5182C18.3522 51.9132 17.6591 50.271 17.0528 48.594C16.4441 46.9194 15.9249 45.215 15.4901 43.4858C15.0553 41.7566 14.71 40.0076 14.4541 38.2436C14.1982 36.4796 14.0317 34.7057 13.9572 32.9243C13.8802 31.1429 13.8951 29.3615 14.0019 27.5802V27.4957C14.0118 26.8994 14.0218 26.3876 14.0218 25.9205V24.3404L15.5746 24.0696C22.1957 22.6211 28.6802 20.7056 35.0256 18.3304L33.7784 14.9043C27.6343 17.2074 21.3609 19.0658 14.9535 20.4795L10.377 21.272V25.9205C10.377 26.3553 10.377 26.8522 10.3572 27.4311V27.5156C10.1037 33.4783 10.705 39.3517 12.1559 45.138C13.3783 49.5679 15.1 53.7915 17.3212 57.8139C19.5423 61.8363 22.2007 65.5431 25.2989 68.9369C25.2367 69.163 25.202 69.3916 25.192 69.6251C25.1846 69.8587 25.202 70.0922 25.2467 70.3208C25.2914 70.5519 25.361 70.773 25.4554 70.9866C25.5523 71.2003 25.6715 71.4016 25.8132 71.5854C25.9548 71.7717 26.1163 71.9407 26.2951 72.0898C26.4765 72.2388 26.6728 72.3655 26.8815 72.4699C27.0902 72.5742 27.3113 72.6512 27.5374 72.7059C27.766 72.7581 27.997 72.7854 28.2306 72.7854Z" fill="#F2994A"/>
<path d="M79.368 23.8331C79.05 23.8306 78.7419 23.8778 78.4388 23.9747C78.1357 24.0691 77.8549 24.2083 77.5965 24.3921C77.3381 24.576 77.1121 24.7946 76.9208 25.048C76.7319 25.3014 76.5829 25.5772 76.4785 25.8778C76.3742 26.176 76.317 26.484 76.3096 26.8021C76.3021 27.1201 76.3419 27.4306 76.4313 27.7337C76.5208 28.0393 76.6549 28.3226 76.8313 28.5859C77.0077 28.8493 77.2214 29.0779 77.4723 29.2741C76.553 45.2593 70.7369 59.3762 59.6958 72.3974L62.4784 74.7552C65.7182 71.0036 68.5853 66.9862 71.0748 62.6979C73.5642 58.4122 75.6363 53.9327 77.2885 49.2569C79.4972 42.8121 80.7742 36.186 81.122 29.3785C81.3879 29.1946 81.6164 28.971 81.8127 28.7126C82.0065 28.4518 82.1556 28.1685 82.2599 27.8629C82.3643 27.5549 82.4189 27.2393 82.4214 26.9139C82.4264 26.5909 82.3792 26.2729 82.2798 25.9648C82.1829 25.6542 82.0388 25.3685 81.85 25.1052C81.6612 24.8418 81.4376 24.6132 81.1742 24.4219C80.9133 24.2306 80.6276 24.084 80.3195 23.9822C80.0115 23.8828 79.6959 23.8331 79.3705 23.8331H79.368Z" fill="#F2994A"/>
<path d="M40.6225 89.1328C40.3467 89.1353 40.0759 89.1726 39.8126 89.2471L38.7119 88.4048C3.0148 61.1674 3.52164 32.7002 3.74027 20.546L0.0955307 20.4814C-0.150434 25.4951 0.0781394 30.489 0.786218 35.4579C1.4943 40.4294 2.66449 45.2891 4.30177 50.0344C9.7428 65.2668 20.5752 79.1526 36.5007 91.3042L37.5765 92.1241C37.5765 92.144 37.5765 92.1639 37.5765 92.1838C37.574 92.3825 37.5939 92.5813 37.6337 92.7775C37.6734 92.9738 37.7306 93.1651 37.8076 93.3515C37.8846 93.5353 37.9765 93.7117 38.0883 93.8782C38.2001 94.0446 38.3268 94.1987 38.4684 94.3403C38.6101 94.4819 38.7641 94.6086 38.9306 94.7204C39.097 94.8322 39.2734 94.9266 39.4573 95.0036C39.6436 95.0807 39.8324 95.1378 40.0287 95.1776C40.2275 95.2148 40.4237 95.2347 40.625 95.2347C40.8262 95.2347 41.025 95.2173 41.2213 95.1776C41.4175 95.1378 41.6088 95.0807 41.7927 95.0036C41.979 94.9266 42.1529 94.8322 42.3194 94.7229C42.4859 94.6111 42.6424 94.4844 42.784 94.3428C42.9256 94.2012 43.0523 94.0471 43.1616 93.8807C43.2734 93.7142 43.3679 93.5378 43.4449 93.3539C43.5219 93.1676 43.579 92.9763 43.6188 92.78C43.6585 92.5838 43.6759 92.385 43.6759 92.1862C43.6759 91.985 43.6585 91.7862 43.6188 91.59C43.579 91.3937 43.5219 91.2024 43.4449 91.0185C43.3679 90.8322 43.2734 90.6558 43.1641 90.4893C43.0523 90.3229 42.9256 90.1688 42.784 90.0272C42.6424 89.8856 42.4883 89.7589 42.3219 89.6471C42.1554 89.5378 41.979 89.4434 41.7927 89.3663C41.6088 89.2893 41.4175 89.2322 41.2213 89.1924C41.025 89.1527 40.8262 89.1328 40.625 89.1328H40.6225Z" fill="#F2994A"/>
<path fill-rule="evenodd" clip-rule="evenodd" d="M59.3435 28.8311C53.3658 27.4919 47.5446 25.6534 41.8825 23.3155L40.6775 22.7192L39.4725 23.3155C33.8104 25.6559 27.9892 27.4944 22.0116 28.8311L19.7581 29.2211V31.5094C19.7581 31.8572 19.7581 32.2497 19.7432 32.6994L19.7432 32.701C19.6239 39.4199 19.3447 55.1479 39.0278 70.1705L40.6775 71.4301L42.3272 70.1705C62.0118 55.1567 61.7335 39.4225 61.6118 32.7069C61.6019 32.2497 61.5969 31.8547 61.5969 31.5168V29.2187L59.3435 28.8311ZM41.2069 44.4794C42.0015 45.1234 43.1858 45.4906 43.1858 45.4906C42.8021 48.2505 40.8939 49.963 40.7811 50.0623C40.6682 49.963 38.7601 48.2505 38.3748 45.4906C38.3748 45.4906 39.5561 45.1249 40.3492 44.4824C40.6366 44.2506 40.751 43.8669 40.6396 43.5148C40.2574 42.2944 39.3515 40.7248 37.5427 39.8595C37.5427 39.8595 37.9806 40.5593 38.1612 41.0484C38.1612 41.0484 37.8331 40.5442 35.3276 39.7256C34.6762 39.5133 33.9084 39.3289 32.9423 39.0969L32.9422 39.0969C32.3058 38.9441 31.5833 38.7706 30.7514 38.5548C28.2082 37.8957 27.6454 36.3608 27.534 35.7062C27.534 35.7062 27.9825 36.2028 29.8515 36.6949C30.9579 36.9875 32.7698 37.125 34.3495 37.2449H34.3495C34.7678 37.2766 35.1699 37.3071 35.5382 37.3389C39.5998 37.6866 40.6667 40.0386 40.7811 40.323C40.8954 40.0386 41.9624 37.6866 46.0239 37.3389C46.392 37.3071 46.7937 37.2766 47.2117 37.2449C48.7911 37.1251 50.6025 36.9876 51.7092 36.6949C53.5797 36.2028 54.0266 35.7062 54.0266 35.7062C53.9153 36.3608 53.3539 37.8957 50.8093 38.5548C49.9769 38.7709 49.254 38.9445 48.6171 39.0975L48.6165 39.0977L48.6163 39.0977C47.6521 39.3293 46.8852 39.5136 46.2346 39.7256C43.7275 40.5442 43.3995 41.0484 43.401 41.0484C43.5801 40.5593 44.0195 39.8595 44.0195 39.8595C42.2061 40.7263 41.3017 42.2989 40.9195 43.5208C40.8112 43.8684 40.924 44.2491 41.2069 44.4794ZM46.1789 45.8984C47.0878 45.8984 48.0253 45.7194 48.8665 45.2197C49.9816 44.5561 50.564 43.7014 50.868 42.9851C51.0786 43.3206 51.3044 43.7315 51.5045 44.2025C52.0237 45.4184 52.2073 46.6192 52.0538 47.7855C52.0538 47.7855 51.3315 46.544 50.248 45.7871C50.248 45.7871 50.2104 47.2859 49.9846 48.6764C49.9335 49.1308 49.8537 49.6485 49.7288 50.2068C49.3947 51.7086 48.6709 53.7567 47.1089 55.6106C47.1089 55.6106 47.0592 53.9914 46.531 53.1668C46.531 53.1668 46.3249 54.1976 44.9946 55.9868C44.3551 56.8476 43.1677 58.074 40.7811 59.4901C38.3929 58.074 37.2056 56.8476 36.566 55.9868C35.2373 54.1976 35.0296 53.1668 35.0296 53.1668C34.5014 53.9914 34.4533 55.6106 34.4533 55.6106C32.8912 53.7567 32.1674 51.7086 31.8318 50.2068C31.7069 49.6485 31.6272 49.1308 31.576 48.6764C31.3518 47.2859 31.3127 45.7871 31.3127 45.7871C30.2292 46.544 29.5069 47.7855 29.5069 47.7855C29.3549 46.6192 29.537 45.4184 30.0561 44.2025C30.2578 43.7315 30.4835 43.3206 30.6927 42.9851C30.9967 43.7014 31.579 44.5561 32.6956 45.2197C33.5368 45.7194 34.4728 45.8984 35.3817 45.8984C35.9611 45.8984 36.5299 45.8262 37.0566 45.7178C37.2477 46.8465 37.9354 49.179 40.3898 51.215L40.7811 51.5385L41.1708 51.215C43.6267 49.179 44.3129 46.8465 44.5055 45.7178C45.0307 45.8262 45.5995 45.8984 46.1789 45.8984ZM40.7811 34.9718C42.4981 34.9733 44.1639 35.4519 45.6041 36.3397C43.0082 36.6196 41.4974 37.5978 40.7811 38.2749C40.0633 37.5978 38.5524 36.6196 35.9566 36.3397C37.3967 35.4519 39.0626 34.9733 40.7811 34.9718ZM45.738 40.9882C46.7432 40.5307 48.0765 40.1996 49.7393 39.864C50.8093 39.6474 51.7949 39.3434 52.5308 38.9687C56.013 37.202 55.08 33.1209 55.08 33.1209C54.138 34.567 53.0455 35.2788 51.4097 35.6821C50.4677 35.9154 49.3661 36.0222 47.4896 36.1787C45.6131 34.6016 43.243 33.7364 40.7811 33.7349C38.3177 33.7364 35.9491 34.6016 34.071 36.1787C32.1945 36.0222 31.093 35.9154 30.1509 35.6821C28.5167 35.2788 27.4227 34.567 26.4822 33.1209C26.4822 33.1209 25.5477 37.202 29.0298 38.9687C29.7657 39.3434 30.7529 39.6474 31.8228 39.864C33.4841 40.1996 34.8189 40.5307 35.8227 40.9882C38.1436 42.0449 38.8894 43.3089 39.1093 43.6816C39.1286 43.7144 39.1439 43.7403 39.1559 43.7586C36.393 45.1927 34.4909 44.824 33.3291 44.1558C31.7596 43.2544 31.3187 41.5705 31.2645 40.7654C31.2645 40.7654 29.7115 41.8369 28.9155 43.7179C28.5257 44.6434 28.2774 45.5809 28.2338 46.5109C28.139 48.5409 28.7304 50.0834 29.1261 50.8734C29.6604 49.7358 30.3556 48.9066 30.3556 48.9066C30.4113 49.3791 30.4955 49.9073 30.6235 50.4761C30.9034 51.7312 31.3322 52.92 31.898 54.008C32.6098 55.3744 33.5383 56.5858 34.6609 57.609L35.7805 58.6278L35.6962 57.1185L35.6957 57.1053C35.6942 57.0687 35.6894 56.9575 35.6857 56.7904C36.7301 58.1929 38.3402 59.5217 40.4786 60.7466L40.7811 60.9197L41.0835 60.7466C43.2219 59.5217 44.8321 58.1929 45.8749 56.7904C45.8712 56.9575 45.8665 57.0687 45.8649 57.1053L45.8644 57.1185L45.7816 58.6278L46.9012 57.609C48.0223 56.5858 48.9523 55.3744 49.6626 54.008C50.2299 52.92 50.6588 51.7312 50.9387 50.4761C51.0651 49.9073 51.1494 49.3791 51.2051 48.9066C51.2051 48.9066 51.9018 49.7358 52.4345 50.8734C52.8303 50.0834 53.4232 48.5409 53.3269 46.5109C53.2832 45.5809 53.0364 44.6434 52.6452 43.7179C51.8506 41.8369 50.2976 40.7654 50.2976 40.7654C50.2435 41.5705 49.8025 43.2544 48.233 44.1558C47.0713 44.824 45.1692 45.1927 42.4048 43.7586C42.4172 43.7398 42.4331 43.7129 42.4534 43.6787L42.4534 43.6786C42.6765 43.3022 43.4232 42.0421 45.738 40.9882ZM38.1075 43.3606C36.3589 44.4696 34.6915 44.1807 33.7992 43.669C32.7684 43.0761 32.3395 42.0664 32.1905 41.3576C32.4343 42.0438 32.9113 42.8278 33.7902 43.3335C34.6946 43.8526 36.1091 44.1671 38.1075 43.3606ZM47.7651 43.669C46.8742 44.1807 45.2069 44.4696 43.4568 43.3606C45.4552 44.1671 46.8697 43.8526 47.7756 43.3335C48.6545 42.8278 49.1315 42.0438 49.3753 41.3576C49.2263 42.0664 48.7974 43.0761 47.7651 43.669ZM39.0367 45.9833C40.1082 45.6041 40.4874 44.665 40.4874 44.665C40.0089 47.6657 40.5973 49.1013 40.5973 49.1013C39.5815 48.1111 39.0367 45.9833 39.0367 45.9833Z" fill="#F2994A"/>
</svg>
