<svg width="139" height="113" viewBox="0 0 139 113" fill="none" xmlns="http://www.w3.org/2000/svg">
<path d="M96.2391 25.764C96.2302 25.2414 96.2234 24.7479 96.2234 24.324V20.1299L92.0898 19.4121C86.6508 18.2189 81.3195 16.6579 76.0958 14.7335C76.0285 14.5518 75.9433 14.3814 75.8401 14.2176C75.737 14.0561 75.6159 13.9059 75.4813 13.7668C75.3467 13.63 75.1987 13.5066 75.0394 13.4012C74.878 13.2936 74.7075 13.2039 74.5281 13.1343C74.3509 13.0626 74.1647 13.011 73.9763 12.9773C73.7857 12.9459 73.595 12.9325 73.4021 12.9392C73.2093 12.9482 73.0186 12.9751 72.8324 13.0222C72.644 13.0693 72.4646 13.1343 72.2919 13.2196C72.1192 13.3048 71.9555 13.408 71.8052 13.5268C71.6527 13.6457 71.5159 13.778 71.3903 13.9261C71.2669 14.0741 71.1593 14.2333 71.0695 14.4015C70.9776 14.572 70.9058 14.7514 70.852 14.9354C70.8004 15.1215 70.7668 15.3099 70.7511 15.5028C70.7376 15.6934 70.7443 15.8863 70.7712 16.077C70.7959 16.2676 70.843 16.4538 70.9081 16.6355C70.9731 16.8171 71.0561 16.9898 71.157 17.1536C71.2579 17.3173 71.3768 17.4698 71.5092 17.6089C71.6415 17.7479 71.7873 17.8735 71.9465 17.9812C72.1058 18.0911 72.274 18.183 72.4534 18.2548C72.6306 18.3288 72.8145 18.3827 73.0052 18.4185C73.1936 18.4544 73.3864 18.4679 73.5793 18.4634C73.77 18.4589 73.9606 18.4342 74.149 18.3894C74.3352 18.3445 74.5169 18.2817 74.6918 18.1987C74.8645 18.1158 75.0305 18.0171 75.183 17.9004C80.521 19.863 85.969 21.4487 91.5291 22.6553L92.9309 22.8976V24.324C92.9309 24.7838 92.9399 25.284 92.9511 25.8223C93.0924 33.8249 93.4266 52.5596 69.9212 70.4982L67.8959 72.0435L69.892 74.652L71.9174 73.1089C82.5464 65.0031 89.7841 55.7243 93.4243 45.5327C94.5188 42.3568 95.3038 39.1069 95.7771 35.7829C96.2503 32.459 96.4051 29.1193 96.2391 25.764Z" fill="#00A991"/>
<mask id="mask0_393_22664" style="mask-type:luminance" maskUnits="userSpaceOnUse" x="34" y="0" width="71" height="16">
<path d="M34.5966 0.915039H104.646V15.8347H34.5966V0.915039Z" fill="white"/>
</mask>
<g mask="url(#mask0_393_22664)">
<path d="M37.7047 15.7113C37.9648 15.7113 38.2205 15.6754 38.4695 15.6036C38.7207 15.5296 38.9539 15.4242 39.1737 15.2852C39.3935 15.1461 39.5909 14.9801 39.7636 14.785C39.9363 14.5899 40.0776 14.3745 40.1898 14.139C49.5515 11.8603 58.6913 8.88623 67.6045 5.22136L68.8874 4.58663L70.1703 5.22136C73.7499 6.991 91.3274 13.1118 99.7875 14.5876L103.553 15.2403L104.116 11.9993L100.35 11.3467C90.5177 9.1464 80.9428 6.12076 71.6282 2.27198L68.8874 0.915039L66.1443 2.27198C57.4958 5.8247 48.6297 8.7068 39.5438 10.9138C39.3778 10.7658 39.1962 10.6379 38.9988 10.5325C38.8037 10.4271 38.5973 10.3463 38.3798 10.2925C38.1644 10.2364 37.9424 10.2073 37.7204 10.2073C37.4961 10.205 37.2763 10.2297 37.0587 10.2835C36.8434 10.3351 36.6348 10.4114 36.4352 10.5146C36.2378 10.6177 36.0539 10.7433 35.8879 10.8891C35.7197 11.0371 35.5717 11.2009 35.4438 11.3848C35.316 11.5687 35.2128 11.7638 35.1321 11.9724C35.0513 12.181 34.9975 12.3963 34.9706 12.6184C34.9414 12.8382 34.9414 13.0602 34.9683 13.2823C34.993 13.5043 35.0468 13.7196 35.1253 13.9282C35.2038 14.139 35.307 14.3342 35.4326 14.5181C35.5605 14.702 35.7062 14.868 35.8722 15.016C36.0404 15.1663 36.2221 15.2919 36.4195 15.3951C36.6169 15.5005 36.8254 15.579 37.0408 15.6328C37.2583 15.6844 37.4781 15.7113 37.7024 15.7113H37.7047Z" fill="#00A991"/>
</g>
<path d="M57.6683 66.6225C57.85 66.6225 58.0294 66.6068 58.2066 66.5709C58.3838 66.535 58.5565 66.4834 58.7225 66.4139C58.8907 66.3443 59.0477 66.2591 59.198 66.1582C59.3482 66.0595 59.4895 65.9451 59.6174 65.8173C59.7452 65.6894 59.8574 65.5504 59.9583 65.4001C60.0592 65.2498 60.1445 65.0906 60.214 64.9224C60.2835 64.7564 60.3351 64.5837 60.371 64.4065C60.4046 64.2293 60.4226 64.0499 60.4226 63.8682C60.4226 63.6888 60.4046 63.5093 60.371 63.3322C60.3351 63.155 60.2835 62.9823 60.214 62.8163C60.1445 62.6481 60.0592 62.4888 59.9583 62.3386C59.8574 62.1883 59.7452 62.0492 59.6174 61.9214C59.4895 61.7935 59.3482 61.6791 59.198 61.5782C59.0477 61.4795 58.8907 61.3943 58.7225 61.3248C58.5565 61.2552 58.3838 61.2037 58.2066 61.1678C58.0294 61.1319 57.85 61.1139 57.6683 61.1139H57.6167C56.5133 59.9432 55.4726 58.7163 54.4947 57.4379C53.5168 56.1594 52.6062 54.8339 51.7628 53.4612C50.9195 52.0908 50.148 50.6801 49.4504 49.2289C48.7506 47.78 48.1249 46.2975 47.5776 44.7835C47.0281 43.2718 46.5594 41.7332 46.1669 40.1722C45.7744 38.6111 45.4626 37.0322 45.2316 35.4397C45.0006 33.8473 44.8503 32.2459 44.783 30.6377C44.7135 29.0296 44.7269 27.4214 44.8234 25.8133V25.737C44.8323 25.1987 44.8413 24.7367 44.8413 24.315V22.8886L46.2431 22.6441C52.2204 21.3365 58.0743 19.6072 63.8026 17.463L62.6767 14.3701C57.13 16.4493 51.4668 18.1269 45.6824 19.4031L41.551 20.1186V24.315C41.551 24.7075 41.551 25.1561 41.5331 25.6787V25.755C41.3043 31.1379 41.8471 36.44 43.1569 41.6637C44.2604 45.6628 45.8147 49.4756 47.8199 53.1069C49.825 56.7381 52.2249 60.0845 55.0217 63.1482C54.9657 63.3523 54.9343 63.5587 54.9253 63.7695C54.9186 63.9803 54.9343 64.1912 54.9746 64.3975C55.015 64.6061 55.0778 64.8057 55.163 64.9986C55.2505 65.1915 55.3582 65.3732 55.486 65.5391C55.6139 65.7074 55.7596 65.8599 55.9211 65.9944C56.0849 66.129 56.262 66.2434 56.4504 66.3376C56.6389 66.4318 56.8385 66.5013 57.0426 66.5507C57.2489 66.5978 57.4575 66.6225 57.6683 66.6225Z" fill="#00A991"/>
<path d="M103.833 22.4307C103.546 22.4285 103.268 22.4711 102.994 22.5586C102.721 22.6438 102.467 22.7694 102.234 22.9354C102.001 23.1014 101.797 23.2987 101.624 23.5275C101.454 23.7563 101.319 24.0052 101.225 24.2766C101.131 24.5458 101.079 24.8239 101.072 25.111C101.066 25.3981 101.101 25.6784 101.182 25.9521C101.263 26.2279 101.384 26.4836 101.543 26.7214C101.703 26.9591 101.895 27.1655 102.122 27.3427C101.292 41.7733 96.0415 54.5174 86.0742 66.2723L88.5862 68.4008C91.5109 65.014 94.0992 61.3873 96.3465 57.5161C98.5939 53.6471 100.464 49.6032 101.956 45.3821C103.95 39.5641 105.103 33.5823 105.417 27.4369C105.657 27.2709 105.863 27.069 106.04 26.8358C106.215 26.6003 106.35 26.3446 106.444 26.0687C106.538 25.7906 106.588 25.5057 106.59 25.2119C106.594 24.9203 106.552 24.6333 106.462 24.3551C106.374 24.0748 106.244 23.8168 106.074 23.5791C105.903 23.3414 105.702 23.135 105.464 22.9623C105.228 22.7896 104.97 22.6573 104.692 22.5653C104.414 22.4756 104.129 22.4307 103.836 22.4307H103.833Z" fill="#00A991"/>
<path d="M68.8556 81.38C68.6066 81.3822 68.3622 81.4159 68.1244 81.4832L67.1308 80.7228C34.9052 56.1341 35.3627 30.4353 35.5601 19.4631L32.2698 19.4048C32.0477 23.9309 32.2541 28.4391 32.8933 32.9249C33.5325 37.4128 34.5889 41.7999 36.067 46.0838C40.9789 59.8349 50.7578 72.3703 65.1347 83.3403L66.1058 84.0804C66.1058 84.0983 66.1058 84.1163 66.1058 84.1342C66.1036 84.3137 66.1215 84.4931 66.1574 84.6703C66.1933 84.8475 66.2449 85.0202 66.3144 85.1884C66.3839 85.3544 66.4669 85.5136 66.5679 85.6639C66.6688 85.8141 66.7832 85.9532 66.911 86.0811C67.0389 86.2089 67.1779 86.3233 67.3282 86.4242C67.4785 86.5251 67.6377 86.6104 67.8037 86.6799C67.9719 86.7494 68.1424 86.801 68.3196 86.8369C68.499 86.8705 68.6762 86.8885 68.8578 86.8885C69.0395 86.8885 69.2189 86.8728 69.3961 86.8369C69.5733 86.801 69.746 86.7494 69.912 86.6799C70.0802 86.6104 70.2372 86.5251 70.3875 86.4265C70.5378 86.3255 70.6791 86.2111 70.8069 86.0833C70.9347 85.9554 71.0491 85.8164 71.1478 85.6661C71.2488 85.5158 71.334 85.3566 71.4035 85.1906C71.473 85.0224 71.5246 84.8497 71.5605 84.6725C71.5964 84.4953 71.6121 84.3159 71.6121 84.1365C71.6121 83.9548 71.5964 83.7754 71.5605 83.5982C71.5246 83.421 71.473 83.2483 71.4035 83.0823C71.334 82.9141 71.2488 82.7549 71.1501 82.6046C71.0491 82.4543 70.9347 82.3153 70.8069 82.1874C70.6791 82.0596 70.54 81.9452 70.3897 81.8443C70.2395 81.7456 70.0802 81.6603 69.912 81.5908C69.746 81.5213 69.5733 81.4697 69.3961 81.4338C69.2189 81.3979 69.0395 81.38 68.8578 81.38H68.8556Z" fill="#00A991"/>
<path fill-rule="evenodd" clip-rule="evenodd" d="M85.7564 26.9428C80.36 25.7339 75.1049 24.0741 69.9934 21.9636L68.9056 21.4253L67.8178 21.9636C62.7063 24.0764 57.4512 25.7361 52.0549 26.9428L50.0206 27.2949V29.3606C50.0206 29.6746 50.0206 30.029 50.0071 30.4349L50.0071 30.4363C49.8994 36.5019 49.6474 50.7004 67.4163 64.262L68.9056 65.3992L70.3949 64.262C88.1652 50.7083 87.914 36.5042 87.8041 30.4417C87.7951 30.029 87.7906 29.6724 87.7906 29.3673V27.2927L85.7564 26.9428ZM69.3837 41.0689C70.101 41.6503 71.1702 41.9818 71.1702 41.9818C70.8237 44.4733 69.1012 46.0193 68.9993 46.1089C68.8974 46.0193 67.1748 44.4733 66.8271 41.9818C66.8271 41.9818 67.8935 41.6517 68.6094 41.0716C68.8689 40.8624 68.9721 40.516 68.8716 40.1981C68.5265 39.0964 67.7087 37.6795 66.0758 36.8983C66.0758 36.8983 66.4711 37.53 66.6342 37.9715C66.6342 37.9715 66.338 37.5165 64.0761 36.7774C63.4881 36.5858 62.7949 36.4193 61.9228 36.2099L61.9227 36.2099L61.9225 36.2098C61.348 36.0719 60.6959 35.9153 59.9449 35.7205C57.6491 35.1255 57.141 33.7398 57.0405 33.1489C57.0405 33.1489 57.4453 33.5972 59.1326 34.0414C60.1314 34.3056 61.7671 34.4297 63.1931 34.5379L63.1934 34.538L63.1937 34.538C63.5711 34.5666 63.9339 34.5941 64.2663 34.6229C67.9329 34.9367 68.896 37.06 68.9993 37.3168C69.1025 37.06 70.0657 34.9367 73.7323 34.6229C74.0646 34.5942 74.4272 34.5666 74.8045 34.538C76.2304 34.4298 77.8656 34.3057 78.8647 34.0414C80.5533 33.5972 80.9567 33.1489 80.9567 33.1489C80.8562 33.7398 80.3495 35.1255 78.0523 35.7205C77.3005 35.9156 76.6476 36.0725 76.0725 36.2106L76.0725 36.2106C75.2021 36.4197 74.5098 36.586 73.9225 36.7774C71.6592 37.5165 71.3631 37.9715 71.3644 37.9715C71.5261 37.53 71.9228 36.8983 71.9228 36.8983C70.2858 37.6808 69.4693 39.1005 69.1243 40.2036C69.0265 40.5174 69.1283 40.8611 69.3837 41.0689ZM73.8722 42.35C74.6927 42.35 75.5391 42.1883 76.2985 41.7373C77.3051 41.1382 77.8308 40.3666 78.1053 39.7199C78.2954 40.0229 78.4992 40.3937 78.6799 40.8189C79.1486 41.9166 79.3143 43.0007 79.1758 44.0535C79.1758 44.0535 78.5237 42.9328 77.5456 42.2494C77.5456 42.2494 77.5116 43.6025 77.3078 44.8577C77.2616 45.268 77.1896 45.7353 77.0769 46.2393C76.7753 47.5951 76.1219 49.444 74.7117 51.1177C74.7117 51.1177 74.6669 49.6559 74.1901 48.9115C74.1901 48.9115 74.004 49.8421 72.8031 51.4573C72.2257 52.2344 71.1539 53.3415 68.9993 54.6199C66.8434 53.3415 65.7715 52.2344 65.1942 51.4573C63.9946 49.8421 63.8071 48.9115 63.8071 48.9115C63.3303 49.6559 63.2868 51.1177 63.2868 51.1177C61.8767 49.444 61.2233 47.5951 60.9203 46.2393C60.8076 45.7353 60.7356 45.268 60.6894 44.8577C60.487 43.6025 60.4517 42.2494 60.4517 42.2494C59.4735 42.9328 58.8215 44.0535 58.8215 44.0535C58.6843 43.0007 58.8486 41.9166 59.3173 40.8189C59.4994 40.3937 59.7031 40.0229 59.892 39.7199C60.1664 40.3666 60.6921 41.1382 61.7001 41.7373C62.4595 42.1883 63.3045 42.35 64.125 42.35C64.648 42.35 65.1615 42.2848 65.637 42.187C65.8095 43.2058 66.4304 45.3115 68.6461 47.1495L68.9993 47.4416L69.3511 47.1495C71.5682 45.3115 72.1877 43.2058 72.3616 42.187C72.8357 42.2848 73.3492 42.35 73.8722 42.35ZM68.9993 32.486C70.5493 32.4873 72.0532 32.9193 73.3533 33.7208C71.0099 33.9735 69.6459 34.8565 68.9993 35.4678C68.3513 34.8565 66.9874 33.9735 64.644 33.7208C65.944 32.9193 67.4479 32.4873 68.9993 32.486ZM73.4742 37.9172C74.3816 37.5042 75.5853 37.2054 77.0864 36.9024C78.0523 36.7068 78.9421 36.4324 79.6064 36.0941C82.7499 34.4992 81.9077 30.815 81.9077 30.815C81.0573 32.1205 80.071 32.7631 78.5943 33.1272C77.7439 33.3377 76.7495 33.4342 75.0554 33.5755C73.3614 32.1518 71.2218 31.3706 68.9993 31.3693C66.7754 31.3706 64.6372 32.1518 62.9418 33.5755C61.2477 33.4342 60.2533 33.3377 59.4029 33.1272C57.9276 32.7631 56.94 32.1205 56.0909 30.815C56.0909 30.815 55.2473 34.4992 58.3908 36.0941C59.0551 36.4324 59.9463 36.7068 60.9122 36.9024C62.412 37.2054 63.6169 37.5042 64.5231 37.9172C66.6183 38.8712 67.2915 40.0122 67.4901 40.3487L67.4901 40.3488L67.4904 40.3493C67.5077 40.3787 67.5214 40.4018 67.5321 40.4182C65.0379 41.7128 63.3208 41.38 62.272 40.7768C60.8551 39.9631 60.4571 38.4429 60.4082 37.7162C60.4082 37.7162 59.0062 38.6834 58.2876 40.3815C57.9357 41.217 57.7116 42.0633 57.6722 42.9029C57.5866 44.7355 58.1205 46.1279 58.4778 46.8411C58.96 45.8141 59.5877 45.0656 59.5877 45.0656C59.6379 45.4922 59.714 45.969 59.8295 46.4825C60.0821 47.6155 60.4693 48.6887 60.9801 49.6709C61.6227 50.9044 62.4609 51.998 63.4743 52.9218L64.485 53.8415L64.4089 52.4789L64.4085 52.467V52.467C64.4071 52.4338 64.4028 52.3336 64.3994 52.1827C65.3422 53.4488 66.7958 54.6484 68.7262 55.7542L68.9993 55.9104L69.2723 55.7542C71.2028 54.6484 72.6563 53.4488 73.5978 52.1827C73.5937 52.3661 73.5883 52.4748 73.5883 52.4789L73.5136 53.8415L74.5243 52.9218C75.5364 51.998 76.3759 50.9044 77.0171 49.6709C77.5293 48.6887 77.9164 47.6155 78.1691 46.4825C78.2832 45.969 78.3593 45.4922 78.4096 45.0656C78.4096 45.0656 79.0385 45.8141 79.5194 46.8411C79.8767 46.1279 80.412 44.7355 80.325 42.9029C80.2856 42.0633 80.0628 41.217 79.7096 40.3815C78.9924 38.6834 77.5904 37.7162 77.5904 37.7162C77.5415 38.4429 77.1434 39.9631 75.7265 40.7768C74.6778 41.38 72.9606 41.7128 70.4651 40.4182C70.4763 40.4012 70.4907 40.3769 70.509 40.3461C70.7104 40.0062 71.3845 38.8687 73.4742 37.9172ZM66.5858 40.0591C65.0072 41.0603 63.502 40.7995 62.6964 40.3376C61.7659 39.8024 61.3787 38.8908 61.2442 38.251C61.4643 38.8704 61.8949 39.5782 62.6883 40.0347C63.5047 40.5033 64.7817 40.7873 66.5858 40.0591ZM75.3042 40.3376C74.5 40.7995 72.9948 41.0603 71.4149 40.0591C73.2189 40.7873 74.4959 40.5033 75.3137 40.0347C76.1071 39.5782 76.5377 38.8704 76.7578 38.251C76.6233 38.8908 76.2361 39.8024 75.3042 40.3376ZM67.4245 42.4268C68.3918 42.0844 68.7341 41.2367 68.7341 41.2367C68.3021 43.9456 68.8333 45.2416 68.8333 45.2416C67.9163 44.3477 67.4245 42.4268 67.4245 42.4268Z" fill="#00A991"/>
<path d="M7.84943 100.648C7.84943 102.655 6.5534 103.47 5.09015 103.47C4.04497 103.47 2.89527 103.052 2.10094 102.362L1.11847 105.539C1.95461 106.375 3.606 106.919 5.34099 106.919C8.22569 106.919 11.3821 105.456 11.3821 101.568V91.8265H7.84943V100.648ZM30.6097 99.1427C30.6097 93.9168 26.0945 91.3457 22.2692 91.3457C18.4229 91.3457 13.9286 93.9168 13.9286 99.1427C13.9286 104.369 18.4229 106.94 22.2692 106.94C26.0945 106.94 30.6097 104.369 30.6097 99.1427ZM26.9934 99.1427C26.9934 102.132 24.4431 103.574 22.2692 103.574C20.0743 103.574 17.524 102.132 17.524 99.1427C17.524 96.1535 20.0743 94.6903 22.2692 94.6903C24.4431 94.6903 26.9934 96.1535 26.9934 99.1427ZM20.6387 99.1636C20.6387 100.146 21.2658 100.773 22.2692 100.773C23.2516 100.773 23.8787 100.146 23.8787 99.1636C23.8787 98.1812 23.2516 97.5331 22.2692 97.5331C21.2658 97.5331 20.6387 98.1812 20.6387 99.1636ZM33.3508 106.459H36.8835V91.8265H33.3508V106.459ZM39.6637 103.512V106.459H46.2484V103.512H39.6637ZM48.5794 106.459H52.1121V91.8265H48.5794V106.459ZM54.8923 103.512V106.459H61.477V103.512H54.8923ZM63.808 91.8265V94.7739H67.3407V91.8265H63.808ZM63.808 106.459H67.3407V97.0524H63.808V106.459ZM79.8899 106.459C82.8373 106.459 84.3633 104.39 84.3633 102.257C84.3633 100.857 83.7153 99.4354 82.3565 98.5574C82.8791 97.8258 83.1509 96.9478 83.1509 96.0699C83.1509 93.9377 81.6249 91.8265 78.573 91.8265H70.4833V94.4812H77.8414C79.0329 94.4812 79.6391 95.2965 79.6391 96.0908C79.6391 96.906 79.0329 97.7004 77.8414 97.7004H70.4833V100.313H79.1583C80.3498 100.313 80.956 101.129 80.956 101.944C80.956 102.78 80.3498 103.595 79.1583 103.595H70.4833V106.459H79.8899ZM86.5988 106.459H90.3406L95.462 95.7981L100.583 106.459H104.325L97.2597 91.6174H93.6852L86.5988 106.459ZM120.713 93.5824C118.873 92.2654 115.821 91.4293 113.02 91.4293C109.634 91.4293 106.624 92.6835 106.624 95.9027C106.624 101.693 116.887 99.8534 116.887 102.508C116.887 103.428 115.675 103.846 114.128 103.846C111.912 103.846 108.965 103.052 107.585 101.777L105.85 104.703C107.627 106.083 110.805 106.94 113.773 106.94C117.41 106.94 120.755 105.644 120.755 102.425C120.755 96.5925 110.449 98.5156 110.449 95.9654C110.449 94.962 111.62 94.523 113.167 94.523C115.132 94.523 117.661 95.2547 118.999 96.4253L120.713 93.5824ZM123.498 91.8265V94.7739H136.562V91.8265H123.498ZM123.498 97.6795V100.606H136.562V97.6795H123.498ZM123.56 103.512V106.459H136.562V103.512H123.56Z" fill="#00A991"/>
</svg>
