<svg width="198" height="213" viewBox="0 0 198 213" fill="none" xmlns="http://www.w3.org/2000/svg">
<g filter="url(#filter0_dd_53_16915)">
<path d="M153.833 106.5C163.866 106.5 172.209 114.74 169.907 124.506C167.052 136.619 161.337 147.969 153.13 157.554C140.953 171.777 124.092 181.179 105.592 184.063C87.0917 186.947 68.1697 183.124 52.2407 173.283C36.3117 163.441 24.4248 148.231 18.7253 130.395C13.0257 112.56 13.8889 93.275 21.1589 76.0202C28.429 58.7654 41.6271 44.6774 58.3715 36.2986C75.116 27.9197 94.3039 25.8019 112.473 30.3272C124.717 33.3771 135.955 39.3087 145.306 47.5219C152.844 54.1431 150.826 65.6938 142.652 71.5122C134.478 77.3306 123.201 74.9323 114.5 69.9352C111.141 68.0056 107.507 66.5342 103.691 65.5837C93.9318 63.1529 83.625 64.2905 74.6307 68.7912C65.6364 73.2919 58.547 80.8593 54.6419 90.1278C50.7368 99.3962 50.2732 109.755 53.3347 119.335C56.3962 128.916 62.7812 137.086 71.3375 142.372C79.8938 147.659 90.0578 149.712 99.9953 148.163C109.933 146.614 118.989 141.564 125.53 133.924C128.088 130.937 130.195 127.63 131.813 124.11C136.003 114.994 143.8 106.5 153.833 106.5Z" fill="fill"/>
</g>
<defs>
<filter id="filter0_dd_53_16915" x="-12.3043" y="0.695651" width="209.902" height="211.609" filterUnits="userSpaceOnUse" color-interpolation-filters="sRGB">
<feFlood flood-opacity="0" result="BackgroundImageFix"/>
<feColorMatrix in="SourceAlpha" type="matrix" values="0 0 0 0 0 0 0 0 0 0 0 0 0 0 0 0 0 0 127 0" result="hardAlpha"/>
<feOffset dx="6.82609" dy="6.82609"/>
<feGaussianBlur stdDeviation="10.2391"/>
<feComposite in2="hardAlpha" operator="out"/>
<feColorMatrix type="matrix" values="0 0 0 0 0.0257292 0 0 0 0 0.0669792 0 0 0 0 0.0791667 0 0 0 0.4 0"/>
<feBlend mode="overlay" in2="BackgroundImageFix" result="effect1_dropShadow_53_16915"/>
<feColorMatrix in="SourceAlpha" type="matrix" values="0 0 0 0 0 0 0 0 0 0 0 0 0 0 0 0 0 0 127 0" result="hardAlpha"/>
<feOffset dx="-6.82609" dy="-6.82609"/>
<feGaussianBlur stdDeviation="10.2391"/>
<feComposite in2="hardAlpha" operator="out"/>
<feColorMatrix type="matrix" values="0 0 0 0 1 0 0 0 0 1 0 0 0 0 1 0 0 0 0.1 0"/>
<feBlend mode="overlay" in2="effect1_dropShadow_53_16915" result="effect2_dropShadow_53_16915"/>
<feBlend mode="normal" in="SourceGraphic" in2="effect2_dropShadow_53_16915" result="shape"/>
</filter>
</defs>
</svg>
