<svg width="117" height="293" viewBox="0 0 117 293" fill="none" xmlns="http://www.w3.org/2000/svg">
<circle cx="111.287" cy="4.32968" r="3.01471" transform="rotate(32.4286 111.287 4.32968)" fill="#EE8888" fill-opacity="0.3"/>
<circle cx="101.587" cy="19.5973" r="3.01471" transform="rotate(32.4286 101.587 19.5973)" fill="#EE8888" fill-opacity="0.3"/>
<circle cx="91.8879" cy="34.8648" r="3.01471" transform="rotate(32.4286 91.8879 34.8648)" fill="#EE8888" fill-opacity="0.3"/>
<circle cx="82.1877" cy="50.1324" r="3.01471" transform="rotate(32.4286 82.1877 50.1324)" fill="#EE8888" fill-opacity="0.3"/>
<circle cx="72.4885" cy="65.4" r="3.01471" transform="rotate(32.4286 72.4885 65.4)" fill="#EE8888" fill-opacity="0.3"/>
<circle cx="62.7883" cy="80.6676" r="3.01471" transform="rotate(32.4286 62.7883 80.6676)" fill="#EE8888" fill-opacity="0.3"/>
<circle cx="53.0881" cy="95.9349" r="3.01471" transform="rotate(32.4286 53.0881 95.9349)" fill="#EE8888" fill-opacity="0.3"/>
<circle cx="43.3889" cy="111.202" r="3.01471" transform="rotate(32.4286 43.3889 111.202)" fill="#EE8888" fill-opacity="0.3"/>
<circle cx="33.6887" cy="126.47" r="3.01471" transform="rotate(32.4286 33.6887 126.47)" fill="#EE8888" fill-opacity="0.3"/>
<circle cx="23.9895" cy="141.738" r="3.01471" transform="rotate(32.4286 23.9895 141.738)" fill="#EE8888" fill-opacity="0.3"/>
<circle cx="14.2893" cy="157.005" r="3.01471" transform="rotate(32.4286 14.2893 157.005)" fill="#EE8888" fill-opacity="0.3"/>
<circle cx="4.59007" cy="172.273" r="3.01471" transform="rotate(32.4286 4.59007 172.273)" fill="#EE8888" fill-opacity="0.3"/>
<circle cx="116.855" cy="29.297" r="3.01471" transform="rotate(32.4286 116.855 29.297)" fill="#EE8888" fill-opacity="0.3"/>
<circle cx="107.156" cy="44.5645" r="3.01471" transform="rotate(32.4286 107.156 44.5645)" fill="#EE8888" fill-opacity="0.3"/>
<circle cx="97.4553" cy="59.8321" r="3.01471" transform="rotate(32.4286 97.4553 59.8321)" fill="#EE8888" fill-opacity="0.3"/>
<circle cx="87.7561" cy="75.0997" r="3.01471" transform="rotate(32.4286 87.7561 75.0997)" fill="#EE8888" fill-opacity="0.3"/>
<circle cx="78.0559" cy="90.3673" r="3.01471" transform="rotate(32.4286 78.0559 90.3673)" fill="#EE8888" fill-opacity="0.3"/>
<circle cx="68.3557" cy="105.635" r="3.01471" transform="rotate(32.4286 68.3557 105.635)" fill="#EE8888" fill-opacity="0.3"/>
<circle cx="58.6565" cy="120.902" r="3.01471" transform="rotate(32.4286 58.6565 120.902)" fill="#EE8888" fill-opacity="0.3"/>
<circle cx="48.9563" cy="136.17" r="3.01471" transform="rotate(32.4286 48.9563 136.17)" fill="#EE8888" fill-opacity="0.3"/>
<circle cx="39.2571" cy="151.438" r="3.01471" transform="rotate(32.4286 39.2571 151.438)" fill="#EE8888" fill-opacity="0.3"/>
<circle cx="29.5569" cy="166.705" r="3.01471" transform="rotate(32.4286 29.5569 166.705)" fill="#EE8888" fill-opacity="0.3"/>
<circle cx="19.8576" cy="181.973" r="3.01471" transform="rotate(32.4286 19.8576 181.973)" fill="#EE8888" fill-opacity="0.3"/>
<circle cx="112.723" cy="69.5321" r="3.01471" transform="rotate(32.4286 112.723 69.5321)" fill="#EE8888" fill-opacity="0.3"/>
<circle cx="103.024" cy="84.7994" r="3.01471" transform="rotate(32.4286 103.024 84.7994)" fill="#EE8888" fill-opacity="0.3"/>
<circle cx="93.3235" cy="100.067" r="3.01471" transform="rotate(32.4286 93.3235 100.067)" fill="#EE8888" fill-opacity="0.3"/>
<circle cx="83.6233" cy="115.335" r="3.01471" transform="rotate(32.4286 83.6233 115.335)" fill="#EE8888" fill-opacity="0.3"/>
<circle cx="73.9241" cy="130.602" r="3.01471" transform="rotate(32.4286 73.9241 130.602)" fill="#EE8888" fill-opacity="0.3"/>
<circle cx="64.2239" cy="145.87" r="3.01471" transform="rotate(32.4286 64.2239 145.87)" fill="#EE8888" fill-opacity="0.3"/>
<circle cx="54.5246" cy="161.137" r="3.01471" transform="rotate(32.4286 54.5246 161.137)" fill="#EE8888" fill-opacity="0.3"/>
<circle cx="44.8244" cy="176.405" r="3.01471" transform="rotate(32.4286 44.8244 176.405)" fill="#EE8888" fill-opacity="0.3"/>
<circle cx="35.1252" cy="191.672" r="3.01471" transform="rotate(32.4286 35.1252 191.672)" fill="#EE8888" fill-opacity="0.3"/>
<circle cx="118.291" cy="94.4994" r="3.01471" transform="rotate(32.4286 118.291 94.4994)" fill="#EE8888" fill-opacity="0.3"/>
<circle cx="108.591" cy="109.767" r="3.01471" transform="rotate(32.4286 108.591 109.767)" fill="#EE8888" fill-opacity="0.3"/>
<circle cx="98.8909" cy="125.034" r="3.01471" transform="rotate(32.4286 98.8909 125.034)" fill="#EE8888" fill-opacity="0.3"/>
<circle cx="89.1916" cy="140.302" r="3.01471" transform="rotate(32.4286 89.1916 140.302)" fill="#EE8888" fill-opacity="0.3"/>
<circle cx="79.4914" cy="155.569" r="3.01471" transform="rotate(32.4286 79.4914 155.569)" fill="#EE8888" fill-opacity="0.3"/>
<circle cx="69.7922" cy="170.837" r="3.01471" transform="rotate(32.4286 69.7922 170.837)" fill="#EE8888" fill-opacity="0.3"/>
<circle cx="60.092" cy="186.105" r="3.01471" transform="rotate(32.4286 60.092 186.105)" fill="#EE8888" fill-opacity="0.3"/>
<circle cx="50.3928" cy="201.372" r="3.01471" transform="rotate(32.4286 50.3928 201.372)" fill="#EE8888" fill-opacity="0.3"/>
<circle cx="114.158" cy="134.734" r="3.01471" transform="rotate(32.4286 114.158 134.734)" fill="#EE8888" fill-opacity="0.3"/>
<circle cx="104.459" cy="150.002" r="3.01471" transform="rotate(32.4286 104.459 150.002)" fill="#EE8888" fill-opacity="0.3"/>
<circle cx="94.759" cy="165.269" r="3.01471" transform="rotate(32.4286 94.759 165.269)" fill="#EE8888" fill-opacity="0.3"/>
<circle cx="85.0598" cy="180.537" r="3.01471" transform="rotate(32.4286 85.0598 180.537)" fill="#EE8888" fill-opacity="0.3"/>
<circle cx="75.3596" cy="195.805" r="3.01471" transform="rotate(32.4286 75.3596 195.805)" fill="#EE8888" fill-opacity="0.3"/>
<circle cx="65.6594" cy="211.072" r="3.01471" transform="rotate(32.4286 65.6594 211.072)" fill="#EE8888" fill-opacity="0.3"/>
<circle cx="119.727" cy="159.702" r="3.01471" transform="rotate(32.4286 119.727 159.702)" fill="#EE8888" fill-opacity="0.3"/>
<circle cx="110.027" cy="174.969" r="3.01471" transform="rotate(32.4286 110.027 174.969)" fill="#EE8888" fill-opacity="0.3"/>
<circle cx="100.327" cy="190.237" r="3.01471" transform="rotate(32.4286 100.327 190.237)" fill="#EE8888" fill-opacity="0.3"/>
<circle cx="90.6272" cy="205.504" r="3.01471" transform="rotate(32.4286 90.6272 205.504)" fill="#EE8888" fill-opacity="0.3"/>
<circle cx="80.927" cy="220.772" r="3.01471" transform="rotate(32.4286 80.927 220.772)" fill="#EE8888" fill-opacity="0.3"/>
<circle cx="115.595" cy="199.936" r="3.01471" transform="rotate(32.4286 115.595 199.936)" fill="#EE8888" fill-opacity="0.3"/>
<circle cx="105.895" cy="215.204" r="3.01471" transform="rotate(32.4286 105.895 215.204)" fill="#EE8888" fill-opacity="0.3"/>
<circle cx="96.1946" cy="230.472" r="3.01471" transform="rotate(32.4286 96.1946 230.472)" fill="#EE8888" fill-opacity="0.3"/>
<circle cx="111.462" cy="240.171" r="3.01471" transform="rotate(32.4286 111.462 240.171)" fill="#EE8888" fill-opacity="0.3"/>
</svg>
