<svg width="189" height="191" viewBox="0 0 189 191" fill="none" xmlns="http://www.w3.org/2000/svg">
<mask id="path-1-outside-1_155_20136" maskUnits="userSpaceOnUse" x="-4.26022e-07" y="-2.60347e-08" width="189" height="191" fill="black">
<rect fill="white" x="-4.26022e-07" y="-2.60347e-08" width="189" height="191"/>
<path d="M175.873 121.586C169.837 140.181 157.541 156.108 141.08 166.653C124.618 177.198 105.01 181.709 85.5948 179.417C66.1801 177.126 48.1606 168.173 34.6065 154.085C21.0525 139.997 12.8026 121.645 11.2626 102.157C9.72255 82.6679 14.9876 63.248 26.1607 47.206C37.3338 31.164 53.7235 19.4924 72.5374 14.1798C91.3512 8.86732 111.425 10.2426 129.339 18.0713C147.252 25.9001 161.897 39.6979 170.778 57.1138L139.658 72.9828C134.448 62.7667 125.858 54.673 115.35 50.0807C104.842 45.4884 93.0663 44.6817 82.0302 47.798C70.9941 50.9143 61.3799 57.7608 54.8259 67.171C48.2718 76.5811 45.1833 87.9727 46.0867 99.4048C46.9901 110.837 51.8294 121.602 59.7802 129.866C67.7309 138.13 78.3011 143.381 89.6897 144.726C101.078 146.07 112.581 143.424 122.237 137.238C131.893 131.052 139.106 121.71 142.646 110.802L175.873 121.586Z"/>
</mask>
<path d="M175.873 121.586C169.837 140.181 157.541 156.108 141.08 166.653C124.618 177.198 105.01 181.709 85.5948 179.417C66.1801 177.126 48.1606 168.173 34.6065 154.085C21.0525 139.997 12.8026 121.645 11.2626 102.157C9.72255 82.6679 14.9876 63.248 26.1607 47.206C37.3338 31.164 53.7235 19.4924 72.5374 14.1798C91.3512 8.86732 111.425 10.2426 129.339 18.0713C147.252 25.9001 161.897 39.6979 170.778 57.1138L139.658 72.9828C134.448 62.7667 125.858 54.673 115.35 50.0807C104.842 45.4884 93.0663 44.6817 82.0302 47.798C70.9941 50.9143 61.3799 57.7608 54.8259 67.171C48.2718 76.5811 45.1833 87.9727 46.0867 99.4048C46.9901 110.837 51.8294 121.602 59.7802 129.866C67.7309 138.13 78.3011 143.381 89.6897 144.726C101.078 146.07 112.581 143.424 122.237 137.238C131.893 131.052 139.106 121.71 142.646 110.802L175.873 121.586Z" fill="#F0ECE1"/>
<path d="M175.873 121.586C169.837 140.181 157.541 156.108 141.08 166.653C124.618 177.198 105.01 181.709 85.5948 179.417C66.1801 177.126 48.1606 168.173 34.6065 154.085C21.0525 139.997 12.8026 121.645 11.2626 102.157C9.72255 82.6679 14.9876 63.248 26.1607 47.206C37.3338 31.164 53.7235 19.4924 72.5374 14.1798C91.3512 8.86732 111.425 10.2426 129.339 18.0713C147.252 25.9001 161.897 39.6979 170.778 57.1138L139.658 72.9828C134.448 62.7667 125.858 54.673 115.35 50.0807C104.842 45.4884 93.0663 44.6817 82.0302 47.798C70.9941 50.9143 61.3799 57.7608 54.8259 67.171C48.2718 76.5811 45.1833 87.9727 46.0867 99.4048C46.9901 110.837 51.8294 121.602 59.7802 129.866C67.7309 138.13 78.3011 143.381 89.6897 144.726C101.078 146.07 112.581 143.424 122.237 137.238C131.893 131.052 139.106 121.71 142.646 110.802L175.873 121.586Z" stroke="#F0ECE1" stroke-width="20.0296" mask="url(#path-1-outside-1_155_20136)"/>
</svg>
