<svg width="28" height="22" viewBox="0 0 28 22" fill="none" xmlns="http://www.w3.org/2000/svg">
<path d="M24.6667 0.49707H3.33333C1.86666 0.49707 0.679997 1.69707 0.679997 3.16374L0.666664 19.1637C0.666664 20.6304 1.86666 21.8304 3.33333 21.8304H24.6667C26.1333 21.8304 27.3333 20.6304 27.3333 19.1637V3.16374C27.3333 1.69707 26.1333 0.49707 24.6667 0.49707ZM24.1333 6.16374L14.7067 12.0571C14.28 12.3237 13.72 12.3237 13.2933 12.0571L3.86666 6.16374C3.73297 6.08869 3.61589 5.98729 3.52252 5.86568C3.42914 5.74407 3.36141 5.60477 3.32343 5.45623C3.28545 5.30769 3.278 5.15298 3.30154 5.00148C3.32508 4.84998 3.37911 4.70482 3.46037 4.57481C3.54163 4.44479 3.64843 4.33261 3.7743 4.24506C3.90017 4.15752 4.04249 4.09642 4.19266 4.06547C4.34282 4.03452 4.49771 4.03436 4.64794 4.065C4.79817 4.09564 4.94062 4.15645 5.06666 4.24374L14 9.8304L22.9333 4.24374C23.0594 4.15645 23.2018 4.09564 23.3521 4.065C23.5023 4.03436 23.6572 4.03452 23.8073 4.06547C23.9575 4.09642 24.0998 4.15752 24.2257 4.24506C24.3516 4.33261 24.4584 4.44479 24.5396 4.57481C24.6209 4.70482 24.6749 4.84998 24.6985 5.00148C24.722 5.15298 24.7145 5.30769 24.6766 5.45623C24.6386 5.60477 24.5709 5.74407 24.4775 5.86568C24.3841 5.98729 24.267 6.08869 24.1333 6.16374Z" fill="white"/>
</svg>
