<svg width="31" height="35" viewBox="0 0 31 35" fill="fill" xmlns="http://www.w3.org/2000/svg">
<path d="M20.2431 21.0772C20.0314 21.0079 18.6932 20.4048 19.5294 17.863H19.5174C21.6971 15.6181 23.3627 12.0058 23.3627 8.44936C23.3627 2.98095 19.7265 0.114258 15.5003 0.114258C11.2715 0.114258 7.6552 2.97962 7.6552 8.44936C7.6552 12.0204 9.31157 15.6474 11.5045 17.8869C12.3593 20.1292 10.8308 20.9613 10.5112 21.0772C6.08537 22.679 0.892578 25.5962 0.892578 28.4762V29.5561C0.892578 33.48 8.50069 34.3721 15.5416 34.3721C22.5931 34.3721 30.1054 33.48 30.1054 29.5561V28.4762C30.1054 25.5097 24.8873 22.615 20.2431 21.0772ZM12.8986 32.6731C12.8986 29.2791 15.0596 24.6975 15.0596 24.6975L13.5643 23.5245C13.5643 22.4033 15.499 21.2303 15.499 21.2303C15.499 21.2303 17.4283 22.422 17.4283 23.5245L15.9384 24.6975C15.9384 24.6975 18.0994 29.2618 18.0994 32.7104C18.0994 33.251 12.8986 33.1258 12.8986 32.6731Z" fill="fill"/>
</svg>
