<svg width="25" height="25" viewBox="0 0 25 25" fill="none" xmlns="http://www.w3.org/2000/svg">
<g id="Fether Icons /settings" clip-path="url(#clip0_421_6819)">
<path id="Vector (Stroke)" fill-rule="evenodd" clip-rule="evenodd" d="M12.2021 10.5706C11.0976 10.5706 10.2021 11.466 10.2021 12.5706C10.2021 13.6751 11.0976 14.5706 12.2021 14.5706C13.3067 14.5706 14.2021 13.6751 14.2021 12.5706C14.2021 11.466 13.3067 10.5706 12.2021 10.5706ZM8.20215 12.5706C8.20215 10.3614 9.99301 8.57056 12.2021 8.57056C14.4113 8.57056 16.2021 10.3614 16.2021 12.5706C16.2021 14.7797 14.4113 16.5706 12.2021 16.5706C9.99301 16.5706 8.20215 14.7797 8.20215 12.5706Z" fill="#595959"/>
<path id="Vector (Stroke)_2" fill-rule="evenodd" clip-rule="evenodd" d="M12.2021 2.57056C11.9369 2.57056 11.6826 2.67591 11.495 2.86345C11.3075 3.05099 11.2021 3.30534 11.2021 3.57056V3.74454C11.2001 4.26135 11.0469 4.76628 10.7616 5.19717C10.4762 5.62806 10.0711 5.96611 9.59608 6.1697C9.51153 6.20594 9.42257 6.23025 9.33176 6.24212C8.90013 6.39327 8.43547 6.43053 7.98315 6.34852C7.46215 6.25405 6.9814 6.00568 6.60288 5.63542L6.595 5.62771L6.53504 5.56766C6.44217 5.47469 6.33149 5.40053 6.21009 5.35021C6.08869 5.29989 5.95856 5.27398 5.82715 5.27398C5.69573 5.27398 5.56561 5.29989 5.44421 5.35021C5.32281 5.40053 5.21252 5.47429 5.11965 5.56727L5.11886 5.56806C5.02589 5.66093 4.95213 5.77122 4.9018 5.89262C4.85148 6.01401 4.82557 6.14414 4.82557 6.27556C4.82557 6.40697 4.85148 6.5371 4.9018 6.6585C4.95213 6.77989 5.02589 6.89018 5.11886 6.98306L5.18705 7.05125C5.55731 7.42976 5.80564 7.91056 5.90011 8.43156C5.9927 8.94219 5.93328 9.46852 5.7296 9.94533C5.54404 10.4319 5.21913 10.8532 4.7952 11.1564C4.36269 11.4658 3.84713 11.6378 3.31553 11.6503L3.29215 11.6506H3.20215C2.93693 11.6506 2.68258 11.7559 2.49504 11.9434C2.30751 12.131 2.20215 12.3853 2.20215 12.6506C2.20215 12.9158 2.30751 13.1701 2.49504 13.3577C2.68258 13.5452 2.93693 13.6506 3.20215 13.6506H3.37614C3.89295 13.6526 4.39787 13.8058 4.82876 14.0911C5.25816 14.3755 5.59535 14.7788 5.79916 15.2517C6.01123 15.7348 6.07426 16.2703 5.98011 16.7896C5.88564 17.3106 5.63727 17.7913 5.26701 18.1698L5.2593 18.1777L5.19925 18.2377C5.10628 18.3305 5.03213 18.4412 4.9818 18.5626C4.93148 18.684 4.90557 18.8141 4.90557 18.9456C4.90557 19.077 4.93148 19.2071 4.9818 19.3285C5.03213 19.4499 5.10589 19.5602 5.19886 19.6531L5.19965 19.6538C5.29252 19.7468 5.40281 19.8206 5.52421 19.8709C5.64561 19.9212 5.77573 19.9471 5.90715 19.9471C6.03856 19.9471 6.16869 19.9212 6.29009 19.8709C6.41149 19.8206 6.52178 19.7468 6.61465 19.6538L6.68284 19.5856C7.06136 19.2154 7.54215 18.9671 8.06315 18.8726C8.57377 18.78 9.10011 18.8394 9.57692 19.0431C10.0635 19.2287 10.4848 19.5536 10.788 19.9775C11.0974 20.41 11.2694 20.9256 11.2819 21.4572L11.2821 21.4806V21.5706C11.2821 21.8358 11.3875 22.0901 11.575 22.2777C11.7626 22.4652 12.0169 22.5706 12.2821 22.5706C12.5474 22.5706 12.8017 22.4652 12.9893 22.2777C13.1768 22.0901 13.2821 21.8358 13.2821 21.5706V21.4006L13.2822 21.3966C13.2842 20.8798 13.4374 20.3748 13.7227 19.9439C14.0071 19.5145 14.4104 19.1773 14.8834 18.9735C15.3665 18.7615 15.9019 18.6985 16.4211 18.7926C16.9421 18.8871 17.4229 19.1354 17.8014 19.5057L17.8093 19.5134L17.8693 19.5734C17.9621 19.6664 18.0728 19.7406 18.1942 19.7909C18.3156 19.8412 18.4457 19.8671 18.5771 19.8671C18.7086 19.8671 18.8387 19.8412 18.9601 19.7909C19.0815 19.7406 19.1918 19.6668 19.2846 19.5738L19.2854 19.5731C19.3784 19.4802 19.4522 19.3699 19.5025 19.2485C19.5528 19.1271 19.5787 18.997 19.5787 18.8656C19.5787 18.7341 19.5528 18.604 19.5025 18.4826C19.4522 18.3612 19.3784 18.2509 19.2854 18.1581L19.2172 18.0899C18.847 17.7113 18.5987 17.2306 18.5042 16.7096C18.41 16.1904 18.4731 15.6549 18.6851 15.1718C18.8889 14.6989 19.2261 14.2955 19.6555 14.0111C20.0864 13.7258 20.5914 13.5726 21.1082 13.5706L21.1121 13.5705L21.2021 13.5706C21.4674 13.5706 21.7217 13.4652 21.9093 13.2777C22.0968 13.0901 22.2021 12.8358 22.2021 12.5706C22.2021 12.3053 22.0968 12.051 21.9093 11.8635C21.7217 11.6759 21.4674 11.5706 21.2021 11.5706H21.0321L21.0282 11.5705C20.5114 11.5685 20.0064 11.4154 19.5755 11.13C19.1446 10.8446 18.8066 10.4395 18.603 9.96449C18.5668 9.87993 18.5425 9.79098 18.5306 9.70016C18.3794 9.26853 18.3422 8.80388 18.4242 8.35156C18.5187 7.83056 18.767 7.34981 19.1373 6.97129L19.145 6.96341L19.205 6.90345C19.298 6.81058 19.3722 6.69989 19.4225 6.5785C19.4728 6.4571 19.4987 6.32697 19.4987 6.19556C19.4987 6.06414 19.4728 5.93402 19.4225 5.81262C19.3722 5.69122 19.2984 5.58093 19.2054 5.48806L19.2046 5.48727C19.1118 5.39429 19.0015 5.32053 18.8801 5.27021C18.7587 5.21989 18.6286 5.19398 18.4971 5.19398C18.3657 5.19398 18.2356 5.21989 18.1142 5.27021C17.9928 5.32054 17.8825 5.39429 17.7896 5.48727L17.7215 5.55546C17.3429 5.92572 16.8621 6.17405 16.3411 6.26852C15.8219 6.36267 15.2864 6.29964 14.8033 6.08757C14.3304 5.88376 13.9271 5.54656 13.6427 5.11717C13.3574 4.68628 13.2042 4.18135 13.2022 3.66454L13.2021 3.66056V3.57056C13.2021 3.30534 13.0968 3.05099 12.9093 2.86345C12.7217 2.67591 12.4674 2.57056 12.2021 2.57056ZM19.6021 15.5706L20.517 15.9743C20.4646 16.0931 20.4489 16.2249 20.4721 16.3527C20.495 16.4791 20.5549 16.5958 20.644 16.6882L20.6989 16.7431C20.699 16.7432 20.6987 16.7429 20.6989 16.7431C20.9776 17.0216 21.1991 17.3527 21.35 17.7167C21.501 18.0809 21.5787 18.4713 21.5787 18.8656C21.5787 19.2598 21.501 19.6502 21.35 20.0144C21.1991 20.3786 20.9778 20.7094 20.6989 20.9881L19.9921 20.2806L20.6996 20.9873C20.421 21.2662 20.0902 21.4875 19.726 21.6384C19.3618 21.7894 18.9714 21.8671 18.5771 21.8671C18.1829 21.8671 17.7925 21.7894 17.4283 21.6384C17.0643 21.4875 16.7336 21.2664 16.455 20.9877C16.4549 20.9875 16.4552 20.9878 16.455 20.9877L16.3998 20.9324C16.3074 20.8433 16.1907 20.7834 16.0643 20.7605C15.9365 20.7373 15.8047 20.753 15.6859 20.8054L15.6761 20.8097C15.5596 20.8597 15.4602 20.9425 15.3902 21.0482C15.3205 21.1535 15.2829 21.2768 15.2821 21.4031V21.5706C15.2821 22.3662 14.9661 23.1293 14.4035 23.6919C13.8409 24.2545 13.0778 24.5706 12.2821 24.5706C11.4865 24.5706 10.7234 24.2545 10.1608 23.6919C9.59822 23.1293 9.28215 22.3662 9.28215 21.5706V21.4949C9.27741 21.3677 9.23541 21.2446 9.16129 21.141C9.08541 21.0349 8.97938 20.9541 8.85697 20.9091C8.8372 20.9018 8.81766 20.8939 8.79838 20.8854C8.67957 20.833 8.54776 20.8173 8.41997 20.8405C8.29356 20.8634 8.17682 20.9233 8.08445 21.0125L8.02965 21.0673C8.02952 21.0674 8.02978 21.0671 8.02965 21.0673C7.75111 21.346 7.41999 21.5675 7.05597 21.7184C6.69178 21.8694 6.3014 21.9471 5.90715 21.9471C5.5129 21.9471 5.12252 21.8694 4.75833 21.7184C4.39448 21.5676 4.06389 21.3466 3.78543 21.0681C3.5065 20.7894 3.28523 20.4586 3.13426 20.0944C2.98328 19.7302 2.90558 19.3398 2.90558 18.9456C2.90558 18.5513 2.98328 18.1609 3.13426 17.7967C3.28523 17.4325 3.5065 17.1017 3.78543 16.8231L3.84026 16.7682C3.92943 16.6759 3.98928 16.5591 4.0122 16.4327C4.03537 16.3049 4.01973 16.1731 3.96729 16.0543L3.96296 16.0445C3.91302 15.928 3.83015 15.8286 3.72446 15.7586C3.61919 15.6889 3.49589 15.6513 3.36965 15.6506H3.20215C2.4065 15.6506 1.64344 15.3345 1.08083 14.7719C0.518219 14.2093 0.202148 13.4462 0.202148 12.6506C0.202148 11.8549 0.518219 11.0918 1.08083 10.5292C1.64344 9.96663 2.4065 9.65056 3.20215 9.65056H3.27779C3.40498 9.64581 3.52806 9.60382 3.6317 9.5297C3.73779 9.45382 3.81859 9.34779 3.86361 9.22538C3.87088 9.2056 3.87878 9.18607 3.88729 9.16679C3.93973 9.04797 3.95537 8.91617 3.9322 8.78838C3.90928 8.66198 3.84943 8.54524 3.76025 8.45287L3.70544 8.39806C3.42651 8.11944 3.20523 7.78857 3.05426 7.42438C2.90328 7.06018 2.82558 6.6698 2.82558 6.27556C2.82558 5.88131 2.90328 5.49093 3.05426 5.12674C3.20516 4.76271 3.4263 4.43199 3.70504 4.15345C3.98358 3.87471 4.3143 3.65357 4.67833 3.50266C5.04252 3.35169 5.4329 3.27398 5.82715 3.27398C6.2214 3.27398 6.61178 3.35169 6.97597 3.50266C7.34016 3.65364 7.67103 3.87491 7.94965 4.15384L8.00446 4.20865C8.09683 4.29784 8.21357 4.35769 8.33997 4.3806C8.46776 4.40378 8.59957 4.38813 8.71838 4.33569C8.78242 4.30743 8.84907 4.28605 8.91722 4.27178C8.98694 4.22445 9.04713 4.16379 9.0941 4.09287C9.16382 3.9876 9.20136 3.8643 9.20215 3.73806V3.57056C9.20215 2.77491 9.51822 2.01185 10.0808 1.44924C10.6434 0.886627 11.4065 0.570557 12.2021 0.570557C12.9978 0.570557 13.7609 0.886627 14.3235 1.44924C14.8861 2.01185 15.2021 2.77491 15.2021 3.57056V3.65806C15.2029 3.7843 15.2405 3.9076 15.3102 4.01287C15.3802 4.11856 15.4796 4.20148 15.5961 4.25142L15.6059 4.25564C15.7248 4.30808 15.8565 4.32378 15.9843 4.3006C16.1107 4.27769 16.2275 4.21784 16.3198 4.12867L16.3746 4.07384C16.6533 3.79491 16.9841 3.57364 17.3483 3.42266C17.7125 3.27169 18.1029 3.19398 18.4971 3.19398C18.8914 3.19398 19.2818 3.27169 19.646 3.42266C20.0102 3.57364 20.341 3.79491 20.6196 4.07384C20.8982 4.3523 21.1192 4.68288 21.27 5.04674C21.421 5.41093 21.4987 5.80131 21.4987 6.19556C21.4987 6.5898 21.421 6.98018 21.27 7.34438C21.1191 7.7084 20.898 8.03912 20.6193 8.31766C20.6191 8.31779 20.6194 8.31753 20.6193 8.31766L20.5641 8.37287C20.4749 8.46523 20.415 8.58198 20.3921 8.70838C20.3689 8.83617 20.3846 8.96797 20.437 9.08679C20.4653 9.15083 20.4867 9.21748 20.5009 9.28562C20.5483 9.35535 20.6089 9.41554 20.6798 9.4625C20.7851 9.53222 20.9084 9.56976 21.0346 9.57056H21.2021C21.9978 9.57056 22.7609 9.88663 23.3235 10.4492C23.8861 11.0118 24.2021 11.7749 24.2021 12.5706C24.2021 13.3662 23.8861 14.1293 23.3235 14.6919C22.7609 15.2545 21.9978 15.5706 21.2021 15.5706H21.1146C20.9884 15.5713 20.8651 15.6089 20.7598 15.6786C20.6541 15.7486 20.5712 15.848 20.5213 15.9645L19.6021 15.5706Z" fill="#595959"/>
</g>
<defs>
<clipPath id="clip0_421_6819">
<rect width="24" height="24" fill="white" transform="translate(0.202148 0.570557)"/>
</clipPath>
</defs>
</svg>
