<svg width="24" height="20" viewBox="0 0 24 20" fill="none" xmlns="http://www.w3.org/2000/svg">
<path d="M7.547 19.9163C16.604 19.9163 21.557 12.4132 21.557 5.90625C21.557 5.69325 21.557 5.48125 21.543 5.27025C22.5069 4.57291 23.3389 3.70942 24 2.72025C23.1015 3.11891 22.1482 3.38049 21.172 3.49625C22.1997 2.88055 22.9687 1.91252 23.336 0.772251C22.3697 1.34569 21.3124 1.74984 20.21 1.96725C19.4675 1.17779 18.4856 0.655034 17.4161 0.479861C16.3466 0.304689 15.2492 0.48687 14.2937 0.998215C13.3382 1.50956 12.5779 2.32156 12.1303 3.30857C11.6828 4.29558 11.573 5.40257 11.818 6.45825C9.8604 6.36013 7.94532 5.85147 6.19705 4.96527C4.44877 4.07908 2.90639 2.83516 1.67 1.31425C1.04049 2.39832 0.84778 3.68154 1.1311 4.90269C1.41442 6.12384 2.15247 7.19112 3.195 7.88725C2.41129 7.86385 1.64472 7.65223 0.96 7.27025V7.33325C0.96031 8.47005 1.3538 9.57176 2.07373 10.4515C2.79367 11.3313 3.79573 11.935 4.91 12.1603C4.18515 12.3577 3.42469 12.3864 2.687 12.2443C3.0016 13.2227 3.61411 14.0783 4.43888 14.6915C5.26365 15.3047 6.25944 15.6448 7.287 15.6643C6.26601 16.4664 5.09691 17.0595 3.84655 17.4095C2.59619 17.7596 1.28909 17.8597 0 17.7043C2.25155 19.1496 4.87147 19.9164 7.547 19.9133" fill="white"/>
</svg>
