<svg width="33" height="32" viewBox="0 0 33 32" fill="fill" xmlns="http://www.w3.org/2000/svg">
<path d="M27.6625 4.7741C26.2109 3.30781 24.4819 2.14524 22.5762 1.35418C20.6706 0.563119 18.6266 0.15941 16.5633 0.166598C7.91832 0.166598 0.872486 7.21243 0.872486 15.8574C0.872486 18.6283 1.60082 21.3199 2.96249 23.6949L0.745819 31.8333L9.05832 29.6483C11.3542 30.8991 13.935 31.5641 16.5633 31.5641C25.2083 31.5641 32.2542 24.5183 32.2542 15.8733C32.2542 11.6774 30.6233 7.73493 27.6625 4.7741ZM16.5633 28.9041C14.22 28.9041 11.9242 28.2708 9.91332 27.0833L9.43832 26.7983L4.49832 28.0966L5.81249 23.2833L5.49582 22.7924C4.19392 20.7135 3.50262 18.3104 3.50082 15.8574C3.50082 8.6691 9.35915 2.81077 16.5475 2.81077C20.0308 2.81077 23.3083 4.17243 25.7625 6.64243C26.9777 7.85204 27.9407 9.29081 28.5957 10.8754C29.2507 12.4599 29.5847 14.1587 29.5783 15.8733C29.61 23.0616 23.7517 28.9041 16.5633 28.9041ZM23.72 19.1508C23.3242 18.9608 21.3925 18.0108 21.0442 17.8683C20.68 17.7416 20.4267 17.6783 20.1575 18.0583C19.8883 18.4541 19.1442 19.3408 18.9225 19.5941C18.7008 19.8633 18.4633 19.8949 18.0675 19.6891C17.6717 19.4991 16.405 19.0716 14.9167 17.7416C13.745 16.6966 12.9692 15.4141 12.7317 15.0183C12.51 14.6224 12.7 14.4166 12.9058 14.2108C13.08 14.0366 13.3017 13.7516 13.4917 13.5299C13.6817 13.3083 13.7608 13.1341 13.8875 12.8808C14.0142 12.6116 13.9508 12.3899 13.8558 12.1999C13.7608 12.0099 12.9692 10.0783 12.6525 9.2866C12.3358 8.5266 12.0033 8.6216 11.7658 8.60576H11.0058C10.7367 8.60576 10.325 8.70076 9.96082 9.0966C9.61248 9.49243 8.59915 10.4424 8.59915 12.3741C8.59915 14.3058 10.0083 16.1741 10.1983 16.4274C10.3883 16.6966 12.9692 20.6549 16.8958 22.3491C17.83 22.7608 18.5583 22.9983 19.1283 23.1724C20.0625 23.4733 20.9175 23.4258 21.5983 23.3308C22.3583 23.2199 23.9258 22.3808 24.2425 21.4624C24.575 20.5441 24.575 19.7683 24.4642 19.5941C24.3533 19.4199 24.1158 19.3408 23.72 19.1508Z" fill="fill"/>
</svg>
